<?xml version="1.0" encoding="UTF-8"?>
<svg id="Layer_1" data-name="Layer 1" xmlns="http://www.w3.org/2000/svg" viewBox="0 0 1920 1080">
  <defs>
    <style>
      .cls-1 {
        fill: #fcecdc;
      }

      .cls-2 {
        fill: #818b94;
      }

      .cls-3 {
        fill: #5f92bd;
      }

      .cls-4 {
        fill: #2f3a89;
      }

      .cls-5 {
        fill: #848ba8;
      }

      .cls-6 {
        fill: #edf8fc;
      }

      .cls-7 {
        fill: #e44cbd;
      }

      .cls-8 {
        fill: #e450c1;
      }

      .cls-9 {
        fill: #f6c653;
      }

      .cls-10 {
        fill: #9ccced;
      }

      .cls-11 {
        fill: #2a65a8;
      }

      .cls-12 {
        fill: #f6d99a;
      }

      .cls-13 {
        fill: #e846bd;
      }

      .cls-14 {
        fill: #fde5a1;
      }

      .cls-15 {
        fill: #67797e;
      }

      .cls-16 {
        fill: #eff5fb;
      }

      .cls-17 {
        fill: #697580;
      }

      .cls-18 {
        fill: #50667f;
      }

      .cls-19 {
        fill: #b6deed;
      }

      .cls-20 {
        fill: #665759;
      }

      .cls-21 {
        fill: #588fc1;
      }

      .cls-22 {
        fill: #8c4b2f;
      }

      .cls-23 {
        fill: #f9f6f5;
      }

      .cls-24 {
        fill: #5b6671;
      }

      .cls-25 {
        fill: #f6dea9;
      }

      .cls-26 {
        fill: #8c6f1d;
      }

      .cls-27 {
        fill: #75656b;
      }

      .cls-28 {
        fill: #fcfcfc;
      }

      .cls-29 {
        fill: #979ea5;
      }

      .cls-30 {
        fill: #8b4d34;
      }

      .cls-31 {
        fill: #59d5ca;
      }

      .cls-32 {
        fill: #38a06d;
      }

      .cls-33 {
        fill: #aecfe0;
      }

      .cls-34 {
        fill: #76462b;
      }

      .cls-35 {
        fill: #fee189;
      }

      .cls-36 {
        fill: #e9b12a;
      }

      .cls-37 {
        fill: #6d7780;
      }

      .cls-38 {
        fill: #fed560;
      }

      .cls-39 {
        fill: #6899c4;
      }

      .cls-40 {
        fill: #e19e0b;
      }

      .cls-41 {
        fill: #3f3e48;
      }

      .cls-42 {
        fill: #f3f2f2;
      }

      .cls-43 {
        fill: #50d3cb;
      }

      .cls-44 {
        fill: #3d82c5;
      }

      .cls-45 {
        fill: #fdedda;
      }

      .cls-46 {
        fill: #828c95;
      }

      .cls-47 {
        fill: #4a8f92;
      }

      .cls-48 {
        fill: #edcfce;
      }

      .cls-49 {
        fill: #dbfcfb;
      }

      .cls-50 {
        fill: #d6eeee;
      }

      .cls-51 {
        fill: #4f8cc8;
      }

      .cls-52 {
        fill: #fde6a4;
      }

      .cls-53 {
        fill: #f27664;
      }

      .cls-54 {
        fill: #f0f0f0;
      }

      .cls-55 {
        fill: #6496c4;
      }

      .cls-56 {
        fill: #fae3a8;
      }

      .cls-57 {
        fill: #fdf9f8;
      }

      .cls-58 {
        fill: #b2b4b6;
      }

      .cls-59 {
        fill: #e17d78;
      }

      .cls-60 {
        fill: #effcfc;
      }

      .cls-61 {
        fill: #c7f4f3;
      }

      .cls-62 {
        fill: #969da4;
      }

      .cls-63 {
        fill: #eee0cb;
      }

      .cls-64 {
        fill: #ebf8fc;
      }

      .cls-65 {
        fill: #f7f3f2;
      }

      .cls-66 {
        fill: #f5c8a9;
      }

      .cls-67 {
        fill: #c9e7f1;
      }

      .cls-68 {
        fill: #fec41a;
      }

      .cls-69 {
        fill: #969da6;
      }

      .cls-70 {
        fill: #b5c86e;
      }

      .cls-71 {
        fill: #afb2b9;
      }

      .cls-72 {
        fill: #9bbedb;
      }

      .cls-73 {
        fill: #faafae;
      }

      .cls-74 {
        fill: #5188bd;
      }

      .cls-75 {
        fill: #f5b5b7;
      }

      .cls-76 {
        fill: #f8e0a9;
      }

      .cls-77 {
        fill: #f8f1f0;
      }

      .cls-78 {
        fill: #7e87ac;
      }

      .cls-79 {
        fill: #fec51f;
      }

      .cls-80 {
        fill: #9dccee;
      }

      .cls-81 {
        fill: #2f3b8a;
      }

      .cls-82 {
        fill: #a06348;
      }

      .cls-83 {
        fill: #c9e8f2;
      }

      .cls-84 {
        fill: #972f2b;
      }

      .cls-85 {
        fill: #fd8551;
      }

      .cls-86 {
        fill: #a0a9b2;
      }

      .cls-87 {
        fill: #b0423d;
      }

      .cls-88 {
        fill: #fef7e3;
      }

      .cls-89 {
        fill: #fdfefd;
      }

      .cls-90 {
        fill: #f7f7f4;
      }

      .cls-91 {
        fill: #7b666e;
      }

      .cls-92 {
        fill: #cb4c4a;
      }

      .cls-93 {
        fill: #7a838c;
      }

      .cls-94 {
        fill: #4d94d6;
      }

      .cls-95 {
        fill: #183e8b;
      }

      .cls-96 {
        fill: #ca4e36;
      }

      .cls-97 {
        fill: #8a939b;
      }

      .cls-98 {
        fill: #b7ddea;
      }

      .cls-99 {
        fill: #4988c4;
      }

      .cls-100 {
        fill: #959ca5;
      }

      .cls-101 {
        fill: #86b2b3;
      }

      .cls-102 {
        fill: #123a84;
      }

      .cls-103 {
        fill: #785f17;
      }

      .cls-104 {
        fill: #71abd1;
      }

      .cls-105 {
        fill: #fcf0fb;
      }

      .cls-106 {
        fill: #548fc9;
      }

      .cls-107 {
        fill: #5f92be;
      }

      .cls-108 {
        fill: #f6d792;
      }

      .cls-109 {
        fill: #9a438a;
      }

      .cls-110 {
        fill: #828d97;
      }

      .cls-111 {
        fill: #d63e2e;
      }

      .cls-112 {
        fill: #8e97a0;
      }

      .cls-113 {
        fill: #4388ce;
      }

      .cls-114 {
        fill: #c1eeec;
      }

      .cls-115 {
        fill: #4b84b9;
      }

      .cls-116 {
        fill: #efeeee;
      }

      .cls-117 {
        fill: #fefefd;
      }

      .cls-118 {
        fill: #233149;
      }

      .cls-119 {
        fill: #fcd9d2;
      }

      .cls-120 {
        fill: #f5dda6;
      }

      .cls-121 {
        fill: #508ec9;
      }

      .cls-122 {
        fill: #fafcfb;
      }

      .cls-123 {
        fill: #20323e;
      }

      .cls-124 {
        fill: #7b646d;
      }

      .cls-125 {
        fill: #655512;
      }

      .cls-126 {
        fill: #834937;
      }

      .cls-127 {
        fill: #efedc5;
      }

      .cls-128 {
        fill: #518dc7;
      }

      .cls-129 {
        fill: #ed7e72;
      }

      .cls-130 {
        fill: #fec421;
      }

      .cls-131 {
        fill: #4a87c7;
      }

      .cls-132 {
        fill: #57d6c9;
      }

      .cls-133 {
        fill: #fce399;
      }

      .cls-134 {
        fill: #2e3b8a;
      }

      .cls-135 {
        fill: #785c13;
      }

      .cls-136 {
        fill: #939da5;
      }

      .cls-137 {
        fill: #bafaf4;
      }

      .cls-138 {
        fill: #5c728b;
      }

      .cls-139 {
        fill: #fee7a6;
      }

      .cls-140 {
        fill: #3f87cf;
      }

      .cls-141 {
        fill: #ac473d;
      }

      .cls-142 {
        fill: #fefdfc;
      }

      .cls-143 {
        fill: #657a8e;
      }

      .cls-144 {
        fill: #757ba2;
      }

      .cls-145 {
        fill: #43555e;
      }

      .cls-146 {
        fill: #5289bb;
      }

      .cls-147 {
        fill: #97a0a7;
      }

      .cls-148 {
        fill: #cf4a3e;
      }

      .cls-149 {
        fill: #919ba1;
      }

      .cls-150 {
        fill: #3d85cf;
      }

      .cls-151 {
        fill: #63666a;
      }

      .cls-152 {
        fill: #854847;
      }

      .cls-153 {
        fill: #bf4337;
      }

      .cls-154 {
        fill: #707279;
      }

      .cls-155 {
        fill: #858e97;
      }

      .cls-156 {
        fill: #f1f0f0;
      }

      .cls-157 {
        fill: #d43d2e;
      }

      .cls-158 {
        fill: #cd473d;
      }

      .cls-159 {
        fill: #fdc527;
      }

      .cls-160 {
        fill: #8b979f;
      }

      .cls-161 {
        fill: #fe8854;
      }

      .cls-162 {
        fill: #fcf9f7;
      }

      .cls-163 {
        fill: #b9babc;
      }

      .cls-164 {
        fill: #c1c1c1;
      }

      .cls-165 {
        fill: #b4bbc9;
      }

      .cls-166 {
        fill: #f7dd92;
      }

      .cls-167 {
        fill: #e54dc0;
      }

      .cls-168 {
        fill: #e843ba;
      }

      .cls-169 {
        fill: #844831;
      }

      .cls-170 {
        fill: #909ba5;
      }

      .cls-171 {
        fill: #fac837;
      }

      .cls-172 {
        fill: #7f8b95;
      }

      .cls-173 {
        fill: #f5fbfd;
      }

      .cls-174 {
        fill: #ed796f;
      }

      .cls-175 {
        fill: #9ea5ac;
      }

      .cls-176 {
        fill: #c54337;
      }

      .cls-177 {
        fill: #4287cd;
      }

      .cls-178 {
        fill: #b0c6ed;
      }

      .cls-179 {
        fill: #9ba3ab;
      }

      .cls-180 {
        fill: #6f75a1;
      }

      .cls-181 {
        fill: #fefefe;
      }

      .cls-182 {
        fill: #528dc7;
      }

      .cls-183 {
        fill: #4388cd;
      }

      .cls-184 {
        fill: #243639;
      }

      .cls-185 {
        fill: #f6e5ae;
      }

      .cls-186 {
        fill: #a1c2dd;
      }

      .cls-187 {
        fill: #50d5cd;
      }

      .cls-188 {
        fill: #b7cde9;
      }

      .cls-189 {
        fill: #d44030;
      }

      .cls-190 {
        fill: #fbb1ae;
      }

      .cls-191 {
        fill: #59d4ca;
      }

      .cls-192 {
        fill: #84231d;
      }

      .cls-193 {
        fill: #9d7c1e;
      }

      .cls-194 {
        fill: #ecebeb;
      }

      .cls-195 {
        fill: #efacab;
      }

      .cls-196 {
        fill: #f6c3a1;
      }

      .cls-197 {
        fill: #816469;
      }

      .cls-198 {
        fill: #892922;
      }

      .cls-199 {
        fill: #2a353f;
      }

      .cls-200 {
        fill: #5c6064;
      }

      .cls-201 {
        fill: #fdfefe;
      }

      .cls-202 {
        fill: #858f98;
      }

      .cls-203 {
        fill: #e4fbfb;
      }

      .cls-204 {
        fill: #58cfc8;
      }

      .cls-205 {
        fill: #808c96;
      }

      .cls-206 {
        fill: #fc8753;
      }

      .cls-207 {
        fill: #5f2928;
      }

      .cls-208 {
        fill: #badeec;
      }

      .cls-209 {
        fill: #7e8a95;
      }

      .cls-210 {
        fill: #fcebfa;
      }

      .cls-211 {
        fill: #7781a1;
      }

      .cls-212 {
        fill: #fb8951;
      }

      .cls-213 {
        fill: #fe8754;
      }
    </style>
  </defs>
  <path class="cls-130" d="M1633.68,712.47v-51.95s1.77-3.12,1.77-3.12c33.34-6.78,33.19-52.34.03-58.86l-1.82-3.05v-53.17c1.57-.33,6.1-.81,7.49.76l3.06,16.77c8.73,2.04,16.5,5.44,24.25,9.65l14.21-11.15,16.57,17.21c-4.08,4.9-8.59,7.7-11.24,12.74,4.86,7.89,8.25,15.75,10.13,24.06l18.06,2.01.04,23.09-17.45,2.21c-.85,9.59-5,17.72-9.43,26.18l10.94,11.65-17.22,17.27-12.4-10.31c-7.74,6.03-16.16,9.18-25.59,11.18l-.65,16.18c-3.96,1.23-7.48.75-10.77.64Z"/>
  <path class="cls-151" d="M476.5,922.19l.2,1.4h-191.72c-1.24-.38-1.23-.85-.02-1.4h191.55Z"/>
  <path class="cls-138" d="M1500.44,328.07c-6.55,1.95-9.6,4.28-12.32,10.66l-6.79-19.43,19.11,8.77Z"/>
  <path class="cls-18" d="M1181.11,275.84c-5.73,4.42-11.05,6.11-18.26,9.72l7.15-19.87c1.97,6.46,4.23,8.85,11.1,10.15Z"/>
  <path class="cls-163" d="M238.5,922.19h46.46s.02,1.39.02,1.39l-55-.16c0-.49.24-.96.78-1.22h7.75Z"/>
  <path class="cls-58" d="M1633.75,923.64l-.08-2.89c.93.64,2.39,1.41,4.19,1.42l47.92.25c.13.37-.28,1.16-.76,1.16l-51.27.05Z"/>
  <path class="cls-170" d="M1531.06,414.64c-1.36,1.44-2.66-.39-2.97-1.4-.47-1.56-.51-4.6,1.54-4.8.93-.09,2.03,2.92,1.43,6.2Z"/>
  <path class="cls-147" d="M1244.94,238.48c.39,1.62-5.34,2.5-5.55-.32-.12-1.56,4.79-2.82,5.55.32Z"/>
  <path class="cls-29" d="M1498.24,339.38c-1.75-.39-3.97-3.15-3.16-4.9,1.56-.72,4.42,2.53,3.16,4.9Z"/>
  <path class="cls-86" d="M1271.87,234.29c-.66,1.72-1.97,2.68-3.56,2.65s-2.8-.76-3.59-2.7l7.15.04Z"/>
  <path class="cls-69" d="M1253.39,237.07c.39,1.62-5.34,2.5-5.55-.32-.12-1.56,4.79-2.82,5.55.32Z"/>
  <path class="cls-100" d="M1260.16,237.11c-2.01.11-3.55-.4-3.7-.86-.16-.5,2.07-2.95,4.78-2.17,1.06.31,1.56,2.88-1.09,3.03Z"/>
  <rect class="cls-160" x="1517.42" y="373.78" width="3.14" height="5.55" transform="translate(22.81 835.45) rotate(-30.97)"/>
  <path class="cls-179" d="M1216.92,246.43c-2.04,2.8-4.1.27-2.06-1.27,2.25.16,2.41-1.01,2.89-1.29.53-.31,1.86.21,2.07.73s.08,3.06-2.9,1.83Z"/>
  <path class="cls-209" d="M1532.66,421.57c-.09,3.57-3.82,1.92-3.27-.85-.24-3.67,4.12-2.69,3.27.85Z"/>
  <rect class="cls-202" x="1197.22" y="252.31" width="6.04" height="2.66" transform="translate(40.62 653.88) rotate(-30.97)"/>
  <path class="cls-136" d="M1528.04,405.89c-1.56-.21-2.29-3.87-.93-5.6,1.86.28,4.04,3.6.93,5.6Z"/>
  <rect class="cls-175" x="1181.74" y="262.16" width="6.04" height="2.66" transform="translate(33.34 647.31) rotate(-30.97)"/>
  <path class="cls-112" d="M1176.09,271.52c.04-2.2,1.73-3.94,4.11-5.1.35,2.44-.9,4.43-4.11,5.1Z"/>
  <path class="cls-205" d="M1502.8,346.61c-.93.49-2.93-3.2-2.49-3.77,1.71-1.72,5.69,2.09,2.49,3.77Z"/>
  <path class="cls-172" d="M1507.93,354.96c-1.89-.42-3.39-3.14-1.94-5.26.92,0,3.65,1.87,1.94,5.26Z"/>
  <path class="cls-149" d="M1511.52,363.26c-.23-.89-1.24-3.06-2.21-4.03,1.51-2.32,2.67.09,3.37.68,1.42,1.19.9,3.23-1.16,3.36Z"/>
  <path class="cls-62" d="M1235,241.09l-3.35,1.23c-.52.19-.99-1.43-.66-1.96.68-1.08,1.81-.7,2.18-1.02,1.19-1.05,1.43-.62,2.1-.43,1.56.45,1.22,1.62-.28,2.17Z"/>
  <path class="cls-2" d="M1516.03,372.01c-1.13-2.29-1.99-3.5-2.13-5.53,2.65-.95,2.97.78,2.98,1.97.02,1.5.16,2.65-.85,3.56Z"/>
  <path class="cls-110" d="M1208.95,250.77c-1.48.69-3.21-.04-3.13-.48.12-.68,1.49-1.97,2.6-2.25,1.2-.3,2.61.16,2.75.71.12.47-.96,1.43-2.22,2.01Z"/>
  <path class="cls-97" d="M1192.92,259.96c-2.69,1.64-3.81-1.12-1.63-2.62,2.6-2.46,4.8,1.34,1.63,2.62Z"/>
  <path class="cls-155" d="M1525.89,397.34c-1.13-2.29-1.99-3.5-2.13-5.53,2.65-.95,2.97.78,2.98,1.97.02,1.5.16,2.65-.85,3.56Z"/>
  <path class="cls-46" d="M1521.37,383.52c.67-.99,2.3-.28,2.42.38.09.51.18,1.4.01,2.74-.07.53-.66.98-1.48.19-.98-.94-1.91-1.87-.95-3.3Z"/>
  <path class="cls-37" d="M1288.67,234.89c-1.49.79-3.13,1.15-5.74.02.9-.73,2.56-1.82,5.74-.02Z"/>
  <path class="cls-93" d="M1225.54,243.72c-2.55,1.6-3.74-1.62-.66-1.63,1.47-2.09,3.54,1.22.66,1.63Z"/>
  <path class="cls-17" d="M1280.22,234.89c-1.49.79-3.13,1.15-5.74.02.9-.73,2.56-1.82,5.74-.02Z"/>
  <path class="cls-181" d="M1633.67,660.52v-65.02c16.63,1.37,29.3,15.31,29.64,31.86.35,17.28-12.58,31.09-29.64,33.17Z"/>
  <path class="cls-181" d="M476.43,920.78l-105.47-.12c1.81-2.94,2.04-5.85,1.51-9.59l6.94-.64,3.2-79.74c-4.41-1.39-3.46-15.59.9-16.9l6.86-.11.49-23.56,8.44-.77,1.77-2.51,14.5,3.01c4.06-5,7.33-10.4,9.78-16.2-11.29-.07-33.57-11.43-10.93-14.78l14.6,4.09c2.45-3.01,2.46-7.17,2.24-10.77l-22.87-4.22c-14.61-7.17-6.53-14.4,6.13-13.05l14.01,3.79c-1.42-18.94-37.93-38.43-37.52-9.77l-3.01,1.8c-3.89-5.29-8.24-10.51-14.5-13.8-8.49-4.46-17.43-3.12-25.06,3.07l-3.4-22.61c-1.72-11.42-5.82-21.8-11.78-31.71l3.74-20.77c3.3-18.34,15.23-37.16,33.07-36.74,7.71.18,15.28,4.1,20.43,10.22l-2.38,2.4-12.91-1.84c-22.63-3.31-21.95,15.51-18.52,32.88,3.19-7.68,11.95-24.67,18.96-12.11-3.88,10.3-7.85,20.36-11.92,30.17l16.26,16.04c-.54-10.35,1.07-19.95,4.82-28.79,16.08-15.81,12.26,18.55,9.69,26.82-2.24,7.93-.09,12.7,6.44,14.33-1.64-6.25-3.61-17.14,2.29-21.43,3.62-2.63,5.53-2.07,7.91,1.51l4.74,26.25c12.14,1.82,23.51,7.2,32.46,15.63,4.12-3.44,7.95-7.7,9.7-12.88-8.63-5.9-15.75-12.99-21.36-21.28l-2.57-6.05c.34-2.39,1.57-4.84,3.47-5.73,9.62-4.55,19.46,12.49,28.28,24.8,4.29-11.8,10.67-29.68,4.55-34.02l-29.62-21.02c-1.1-.78-1.66-2.1-2.03-2.8-3.75-7.12,22.01,6.71,34.66,15.74,1.58-19.91-28.71-17.52-46.91-32.55,14.9-2.27,27.61,5.26,42.4,11.33.1-4.14-2.38-9.49-4.7-12.48,1.08-.14,4.55-.04,4.66-1.13l1.24-12.76c.11-1.15.46-2.42.89-2.82.67-.63,2.19-1.33,5.37-1.27l.05,315.46Z"/>
  <g>
    <path class="cls-185" d="M262.37,193.35c-21.6,1.73-42.3.82-63.94.72-.82-10.29-.48-19.52.16-30.13l63.73-.18.06,29.59Z"/>
    <rect class="cls-117" x="219.23" y="151.1" width="22.98" height="55.59" transform="translate(51.48 409.34) rotate(-89.91)"/>
  </g>
  <g>
    <polygon class="cls-186" points="1719.55 196.51 1719.53 226.07 1655.63 226.48 1655.83 196.9 1670.25 196.04 1719.55 196.51"/>
    <rect class="cls-201" x="1658.97" y="199.86" width="58" height="23.25" transform="translate(-.32 2.57)"/>
  </g>
  <g>
    <rect class="cls-72" x="1619.69" y="163.71" width="64.63" height="29.93"/>
    <path class="cls-181" d="M1680.58,190.11l-56.85.25-.08-22.88,57.31-.51c.98,7.93.64,15.06-.38,23.14Z"/>
  </g>
  <g>
    <path class="cls-35" d="M1386.94,298.78l3.7.31,15.37,20.59,49.35,10.9c3.19,1.96,3.22,6.05,2.54,9.39l1.55,1.15c-.92,3.36-1.49,6.8-1.72,10.32-2.91,6.11-5.61,12.45-6.27,19.79-4.06,1.68-7.47.2-10.84-.52l-1.52,2.55c-18.9-4.04-37.79-8.08-56.7-12.12l-1.03-3.1-1.82,2.5c-20.89-4.26-41.79-8.52-62.7-12.78l-1.07-3.09-22.97-5.79,8.05-37.36c1.33-2.64,2.73-2.62,3.35.25l1.78-2.51,18.66,3.86,38.97-23.52c9.97-8.19,20.01,7.87,24.45,15.95l-1.12,3.23Z"/>
    <path class="cls-38" d="M1456.39,328.32c2.1,3.87,3.39,7.44,1.51,11.66-.17-1.85.02-3.5-.67-6.1l-53.43-11.8-16.85-23.29c3.31.88,4.67-1.35,6.98-3.27l30.75-25.67,31.72,58.47Z"/>
    <g>
      <path class="cls-159" d="M1420.6,175.52c-1.06,2.82-3.71,2.67-7.93-.46-2.08,1.04-3.19,1.04-4.62-1.32-3.81,2.27-4.71,3.73-2.72,4.38,5.03,1.78,2.68,8.94-2.71,8.26-3.38.51-3.87,1.39-1.47,2.64,3.87,1.56,1.41,6.67-2.53,5.85-3.91,1.97-4.97,3.36-3.18,4.18,5.36.7,2.32,9.16-2.61,6.87-2.13,1.67-2.6,3.01-1.43,4.03l2,2.47c-1.5,2.81-2.52,5.76-3.05,8.86-3,5.04-13.73,1.28-17.26-3.01-11.78.26-23.31-.99-34.6-3.76-4.92-3.02-9.66-4.68-14.21-4.96-1.85,15.1-5.97,29.75-12.37,43.95,1.13,13.58-.39,26.6-4.54,39.05.15,4.31-.91,7.38-3.17,9.21-.92-.19-2.06-.17-3.35-.25l1.81-11.19c5.44-11.62,4.46-23.65,3.5-36.72l-7.13-96.75,114.91-8.97c9.58-.75,3.47,11.75,6.65,27.63Z"/>
      <g>
        <path class="cls-52" d="M1408.05,173.74c.14,1.83-.98,3.52-2.72,4.38l-92.3,6.95c-.87-4.41,2.34-3.85,5.25-4.09l89.77-7.25Z"/>
        <path class="cls-14" d="M1402.63,186.38c-.59.61-1.12,1.84-1.47,2.64l-86.83,6.13c-1.06-3.1,1.81-4.22,4.22-4.36l25.04-1.5,55.01-4.58c1.99-.17,3.59.25,4.03,1.67Z"/>
        <path class="cls-139" d="M1398.63,194.86c-.75,1.73-1.21,3.42-3.18,4.18l-77.12,5.97c-2.09.15-2.86-1.05-2.64-2.45.09-.59,1.36-.85,2.67-.96l80.28-6.74Z"/>
        <path class="cls-133" d="M1392.83,205.92l-1.43,4.03c-15.85-1.73-34.81,6.01-49.64.28l51.07-4.31Z"/>
        <circle class="cls-68" cx="1309.89" cy="216.44" r="4.59"/>
        <path class="cls-68" d="M1385.8,212.3c-1.22,1.34-2.67,2.64-3.98,3.21-2.56,1.12-5.56.73-6.68-3.32,3.42-.91,5.66-.31,10.66.11Z"/>
      </g>
    </g>
    <g>
      <path class="cls-36" d="M1420.6,175.52l67.92,31.97c2.17,1.22,3.13,3.56,2.86,7.03l-9.34,19.18,20.09,9.48c2.25,1.79,4.4,5.16,3.39,7.97l-47.8,100.29c-2.41-3-1.33-8.09.17-11.47l.13-5.56c-3.07-2.04-3.62-4.07-1.64-6.1,2.55-9.5,4.74-19.38,6.57-29.66l3.16-1.39c1.55-1.18,1.94-2.19.94-3.99-4.58-2.58-1.05-15.42,3.48-16.87.92-.91,1.07-1.93.44-3.07l-1.85-.34c.22-9.99,1.99-20.28,5.31-30.87-4.74-1.81-10.12-2.93-16.13-3.36l-1.04-3.26c.27-1.67,2.09-1.2,3.54-.73.87.28-16.16-6.27-17.09-6.49l.44,2.64c-.31,1.05-.83,2.56-1.65,2.59-3,.1-9.78-1.34-13.15-2.09-5.37.18-8.6-1.28-9.7-4.39l-15.56-5.93-.97,1.9c-.08,4.38-12.51,2.54-12.76-1.72-.95-.59-2.03-1.11-2.9-2.13l3.95-9.21c-4.03-1.76-2.07-2.94,1.43-4.03,1.98-1.63,3.18-4.19,2.61-6.87-.78-2.03.29-3.42,3.18-4.18l2.53-5.85c-2.99-2.56-2.4-3.2,1.47-2.64,2.13-2.2,3-5.18,2.71-8.26-1.66-2.11.65-3.74,2.72-4.38,2.23-.18,4.19-3.13,7.71-.03l4.84,1.8Z"/>
      <g>
        <path class="cls-63" d="M1505.52,251.15c.26-2.95-1.91-4.16-4.62-5.44l-22.65-10.67,9.74-20.01c1.44-2.96,2.8-5.05.52-7.54,2.51-.17,2.68.88,3.68,3.44l13.34,34.31c1.36,3.49,1.12,3.54-.01,5.92Z"/>
        <path class="cls-25" d="M1468.49,230.96l-56.74-26.98c-1.22-.58-1.72-.83-1.98-1.72-.42-1.4.84-2.8,2.78-1.89l55.49,26.02c1.14.54,1.75,1.05,2.21,1.44,1.07.9-.04,3.95-1.76,3.14Z"/>
        <path class="cls-120" d="M1457.26,235.51l-13.11-4.59-37.42-17.71c-.83-.39-1.57-1.25-1.93-1.66-.82-.92.06-1.89.71-2.22,1.02-.52,2.29-.52,3.58.09l53.41,25.35c-1.88,2.29-4.18.41-5.24.73Z"/>
        <path class="cls-76" d="M1419.65,227.03c-1.1-.19-2.66-.29-3.74-.11l-6.28-1.29c-1.56-1.27-4.49-2.36-6.5-2.63l-2.98-2.49c-.69-.54.79-3.13,1.6-3.08l17.9,9.6Z"/>
        <path class="cls-12" d="M1486.48,268.78c-3.01,4.21-6.36-.13-8.88-.82-3.3-.9-5.2-2.66-4.01-5.58,4.17.92,8.62,2.67,12.89,6.4Z"/>
        <path class="cls-108" d="M1470.54,276.41l.44-3.07c3.81.34,7.8,2.32,10.57,4.98-.84,2.02-2.37,2.29-3.67,1.65l-7.33-3.56Z"/>
        <path class="cls-166" d="M1466.12,297.27l.94-3.99c1.9-.29,6.62,2.19,5.29,4.24s-5.08.24-6.23-.25Z"/>
        <rect class="cls-56" x="1470.08" y="282.58" width="4.21" height="7.64" transform="translate(665.1851 1550.5644) rotate(-68.4564)"/>
      </g>
    </g>
    <g>
      <path class="cls-68" d="M1390.36,221.28l12.76,1.72c1.5-3.05,7.16-.43,6.5,2.63l6.28,1.29c.77-.87,2.01-.84,3.74.11l24.51,3.89c1.69-2.84,9.77,1.21,12.77,2.87.33.18.37.88.34,1.72,7.47,2.61,13.83.67,20.15,4.38-.3,8.99-4.3,16.71-5.38,25.16l-1.06,8.28c3.56,1.27,3.28,2.51-.44,3.07-.81,5.67-3.22,11.13-3.48,16.87,3.72,1,3.02,3.92-.94,3.99l-5.73,28.18c-.47,2.29-2.18,3.1-4,2.87l-2.93.51-29.55-54.47-31.6,26.22c-1.41,1.33-3.2.74-5.37-1.79l-12.95-17.63c-2.13-2.9-7.58.02-9.88,1.41l-38.92,23.51-20.99-4.32c-1.91-11.09,5.82-21.03,5.12-31.08-.51-7.36-1.77-14.69,1.02-21.83l8.75-22.43,1.7-13.76c.31-2.5.4-5.18,3.14-6.04,7.07-2.2,13.31,10.06,38.1,7.92l12.32,1.33c4.17,4.96,10.35,4.64,16.01,5.41Z"/>
      <ellipse class="cls-88" cx="1342.32" cy="255.16" rx="12.76" ry="12.75"/>
      <path class="cls-36" d="M1415.9,226.93c-2.47.41-4.35.28-6.28-1.29,2.28-.43,4.66-.33,6.28,1.29Z"/>
    </g>
  </g>
  <g>
    <path class="cls-177" d="M310.27,388.48l-65.55-.2c-6.8-.02-11.03-5.64-11.02-12.03l.05-63.45c0-6.52,5.34-11.22,11.77-11.22h63.38c6.75,0,11.99,5.11,11.98,11.84l-.05,63.6c0,5.98-4.26,10.01-10.56,11.47Z"/>
    <g>
      <ellipse class="cls-67" cx="277.16" cy="344.79" rx="27.17" ry="27.16"/>
      <g>
        <path class="cls-51" d="M289.22,343.51c-4.04.95-7.3.8-11.1.25l.14-10.89c2.69-.16,6.55-1.05,9.27.45s2.51,7.33,1.69,10.19Z"/>
        <path class="cls-106" d="M276.36,343.73c-3.68.63-7.13.65-11.31-.24-.6-2.81-.84-7.56,1.39-9.86,1.91-1.97,6.83-1.17,9.34-.4l.58,10.51Z"/>
        <path class="cls-121" d="M275.99,346.7c.43,3.11,1.1,6.73-.3,9.37-.96,1.82-6.35,1.43-8.16.66-2.1-.89-3.82-5.64-2.23-9.2,1.19-2.52,8.05-1.92,10.69-.83Z"/>
        <path class="cls-182" d="M261.6,342.91c-1.12,2.04-8.08,1.85-8.94-.12-.9-3.22.61-7.18,2.07-8.88s7.75-2.22,8.79-.31c.09,2.64-.44,6.6-1.92,9.3Z"/>
        <path class="cls-44" d="M288.73,347.06c1.82,1,.88,6.63-.25,8.25-1.46,2.09-5.83,2.66-9.83,1.41-1.04-2.87-.82-6.23-.41-10.13,2.82-.6,6.36-1.78,10.49.48Z"/>
        <path class="cls-128" d="M302,343.31c-3.52,1.04-6.47.85-9.82.3l-1.56-10.72c2.54-.3,5.85-.92,8.01.38,2.59,1.56,3.34,5.75,3.38,10.04Z"/>
        <path class="cls-131" d="M300.59,346.35c2.71.75.92,6.12-.2,8-1.9,3.18-5.91,3.81-9.76,1.94.24-3.02.3-6.66,2-9.29.89-1.08,4.49-1.6,7.96-.64Z"/>
        <path class="cls-99" d="M261.63,347.18c1.5,2.03,2.61,6.74,1.64,8.87-1.04,1.99-6.21,1.51-7.87.18-1.68-1.34-3.25-5.07-2.63-8.65.46-2.29,7.4-2.36,8.86-.4Z"/>
        <path class="cls-55" d="M286.95,329.83c-2.62,1.87-5.67,1.27-8.75.98l-.09-11.13c4.39,1.76,6.37,4.33,8.85,10.15Z"/>
        <path class="cls-39" d="M275.39,329.99c-.8,1.7-6.35,1.55-7.91.13,1.42-4.57,3.85-8.06,8.26-10.25.59,2.91,1.31,6.57-.36,10.12Z"/>
        <path class="cls-21" d="M275.56,359.58c1.24,3.08.92,6.97.14,10.15-4.58-2.79-6.77-6.16-8.2-10.11,2.73-.78,5.84-1.03,8.07-.04Z"/>
        <path class="cls-74" d="M286.84,359.63c-1.37,3.83-3.61,7.1-8.29,10.02-.95-3.3-.42-6.34-.28-10.21,2.3-.3,3.92-.83,8.57.18Z"/>
        <path class="cls-115" d="M297.28,359.94c-3.24,3.64-6.46,7.23-12.7,8.01,1.77-2.99,3.06-4.73,4.15-7.8,2.32-1.07,4.61-1.73,8.55-.22Z"/>
        <path class="cls-107" d="M267.91,323.37c-1.41,5.91-4.15,8.65-10.87,7.44,1.82-4.19,6.01-7,11.51-9.58,1.06.05,1.44,2.09-.64,2.13Z"/>
        <path class="cls-3" d="M297.33,330.36c-1.83.98-6.24,1.2-7.77-.8-2.09-2.74-3.01-5.19-4.86-8.39,5.38,1.53,9.02,3.77,12.63,9.19Z"/>
        <path class="cls-146" d="M264.8,360.19c2.32,2.68,3.27,4.9,4.9,7.79-5.71-1.34-9.66-4.2-12.74-8.16,2.16-1.05,6.17-1.55,7.83.38Z"/>
      </g>
    </g>
  </g>
  <g>
    <path class="cls-211" d="M645.4,290.24l-3.03.02c-1.1-.13-2.73-.48-2.81-1.27-.96-9.01-1.06-34.3.16-43.04l2.82-2.03c-3.74-.44-3.58-1.73,0-2.82-2.99-1.49-3.93-5.25-2.81-11.26-.78-3.83.16-6.17,2.82-7.03-94.75-.87-189.68-1.1-284.8-.7l.29,19.02c3.6.41,3.02,1.38-.2,2.88l2.82.97c.11,56.29.22,112.6.33,168.91l-2.81,1.72c1.34,2.1-.9,2.44-2.82,1.4v-197.02s290,0,290,0l.06,70.27Z"/>
    <path class="cls-5" d="M477.21,471.9l-2.37-1.54c.76.29,1.57-.32,1.57-1.38v-50.59s-119.58.04-119.58.04c-1.36-.05-1.5-.94-1.5-1.44,1.06-.2,2.03-.66,2.82-1.4l1.3-2.81c38.04.4,76.06.32,114.06-.21-.16-2.91.31-4.23,3.16-5.57-.4-1.21-.21-1.31.57-.28.25,3.94.09,7.8.08,12.11l-.11,53.08Z"/>
    <path class="cls-181" d="M642.55,243.91l-.18,46.35-164.53-.02c-.57,7.3-1.33,14.53-2.28,21.69l-2.92-1.13c-18.67-24.16-47.34-38.57-76.73-45.68-4.01-3.24-4.8-2.81-2.36,1.3-.64,28.42,7.36,56.34,23.21,79.94l.56,5.72c-5.77,3.1-12.55,4.71-20.36,4.83-7.97,2.18-15.87,3.96-23.69,5.36l2.98,1.88c21.36,32.79,56.59,53.16,95.71,41.41l4.71,1.44-.52,8.61-118-.02-.33-171.59.25-1.88c94.38.51,188.87.63,283.49.38l.98,1.41Z"/>
    <g>
      <path class="cls-11" d="M417.33,352.08c21.68-.49,42.09,6.9,58.66,21.79.36-3.66.07-6.14,1.66-8.11.25.59-.98,14.22-1.13,25.8-.58.99-.57,2-.04,3.03l.76,12.12c-.25.08-.42.16-.57.28-23.37,8.14-49.3,5.52-70.68-8.18-13.71-10.13-25.05-21.85-34.76-37.18,15.08-6.43,30.65-9.2,46.09-9.55Z"/>
      <path class="cls-33" d="M476.52,391.56l-.04,3.03-16.64-5.29-24.18,10.48-.12-1.94,20.37-9.59-35.32-10.2-18.69,7.71-.14-1.99,14.73-6.8-23.89-7.57c-.23-.27-.75-.96-.58-1.63l35.84,10.05c-3.39-7.19-9.78-10.87-10.35-18.95l14.02,20.04,30.12,8.79-12.26-20.52c.31-.12,1.05-.86,1.06-.9l14.52,21.42c2.3,3.39,8.11,3.66,11.55,3.85Z"/>
    </g>
    <g>
      <path class="cls-94" d="M477.83,290.25l-.45,22.14-.85,48.34-1.68,1.13c-8.19-8.65-15.27-17.65-23.05-27.79l-.74.65c6.19,6.06,11.86,12.68,17.01,19.85,1.52-.54,2.78.83,3.78,4.12l4.76,4.65,1.04,2.42-1.39,9.83-3.14-.76c-14.71-12.23-32.46-19.58-51.68-19.93l-4.11-2.82c-18.85-25.96-28.31-57.87-26.38-90.93,22.71,4.64,42.13,12.87,59.94,25.05,9.82,7.07,18.03,14.67,24.99,24.36l.44-17.51c.04-1.53.65-2.49,1.52-2.79Z"/>
      <path class="cls-208" d="M476.54,360.73c-.01.74-.22,1.95.07,2.62.27.63-.82,1.78-1.13,1.43l-10.56-12.39-35.04-6.2.82-1.1,31.85,4.53c-4.04-5.77-7.62-10.39-11.48-14.9l-.67-.79c-1.94-2.26-4.98-3.53-6.7-8.02,3.43.4,6,4.35,7.39,7.31.14.29.44.59.73.85,6.35,5.77,11.61,12.78,17.07,19.96,2.61-4.42.57-8.98.92-12.74l1.74-18.71.3,31.14c.04,3.67,1.51,6.43,4.7,7.01Z"/>
      <path class="cls-98" d="M407.45,306.23l21.38,4.05-7.11-11.03c.1-.17.78-.6,1.28.19l18,20.46.6-26.75h2.15s.04,32.41.04,32.41c-4.49-2.31-6.28-7.97-10.34-10.59l-25.98-6.93v-1.81Z"/>
      <path class="cls-19" d="M421.49,298.36c-5.77-3.45-9.83-8.99-13.8-15.36,6.22,3.23,9.53,8.96,13.8,15.36Z"/>
    </g>
    <g>
      <path class="cls-181" d="M642.54,222.8v18.29s-.25,1.41-.25,1.41l-283.22.05c-1.74-6.34-2.2-13.07-1.38-20.19,95.01-.71,189.96-.56,284.85.44Z"/>
      <path class="cls-78" d="M642.54,222.8h-284.18s0,18.3,0,18.3h284.18s0,2.81,0,2.81l-284.72.09c-.02-6.85-2.49-14.57-.71-22.61h283.69c1.36,0,1.76.9,1.73,1.42Z"/>
      <circle class="cls-32" cx="395.47" cy="231.91" r="5.48"/>
      <circle class="cls-9" cx="418.74" cy="231.93" r="5.29"/>
      <circle class="cls-92" cx="371.9" cy="231.95" r="5.15"/>
    </g>
  </g>
  <g>
    <path class="cls-183" d="M1640.72,388.4l-63.31.13c-6.2.01-12.69-4.33-12.7-10.96l-.15-64.71c-.01-6.03,4.19-10.34,10.08-11.23l64.66-.04c6.32,0,11.85,4.64,11.84,11.23l-.06,64.76c0,5.78-4.44,9.74-10.36,10.82Z"/>
    <path class="cls-64" d="M1618.21,336.07l5.86-3.98c-4.07-5.48-9.84-8.4-16.45-8.41-12.76-.03-16.82,10.23-18.91,11.01-7.38,2.76-.17-13.55,16.15-15.1,18.23-1.72,21.09,14.16,28.39,5.85l.27,16.84-15.31-6.21Z"/>
    <path class="cls-6" d="M1626.3,355.03c8.41-1-1.98,13.53-15.97,14.71-18.08,1.52-20.85-14.04-28.21-6.44l.03-16.62,15.13,5.99c-2.55,1.61-4.58,2.6-6.01,4.6,5.05,5.8,10.93,8.51,17.69,8.23,6.61-.27,12.87-3.5,17.34-10.47Z"/>
  </g>
  <g>
    <path class="cls-113" d="M814.57,242.45l-66.34-.1c-6.05,0-10.11-5.38-10.11-11.04v-63.43c0-6.56,4.72-11.26,11.43-11.26l63.31.02c6.59,0,11.41,4.73,11.41,11.25l-.04,63.34c0,5.73-3.42,9.76-9.66,11.22Z"/>
    <path class="cls-83" d="M797.99,190.53c-1.55-9.13-9.03-13.9-16.68-14.3-7.71.32-14.02,5.95-16.21,14.2-8.23-.49-13.67,5.37-13.25,12.05.4,7.36,6.84,12.07,14.61,10.66,2.64-.48,5.63-1,7.89,1.35-3.31,2.38-6.21,1.04-9.32,1.3-8.86.74-15.21-5.2-15.72-13.33-.49-7.86,5.42-13.51,14.14-14.83,3.12-9.39,12.52-15.73,22.06-13.44,6.93,1.67,11.8,7.52,14.39,13.76,7.82,1.32,13.11,7.35,12.83,14.41s-5.9,13.53-13.88,13.36l-11.49-.24c4.2-6.13,20.16,3.18,22.77-11.79,1.16-6.62-3.37-12.81-12.15-13.17Z"/>
    <path class="cls-173" d="M783.15,223.21c-.07.97-4.54.91-5.05.64l-.47-13.93c-.04-1.24-3.85-1.7-5.37-1.35l8.74-13.94,8.12,13.12c-1.36.96-3.04,1.36-5.02,1.88l-.94,13.58Z"/>
  </g>
  <g>
    <g>
      <path class="cls-104" d="M930.53,983.86c3.89.16,6.44-.77,7.68-2.81,125.72.15,251.33.3,376.84.44l1.75,2.82,2.82,1.22c-.55,12.16-.03,24.14,1.56,35.93,2.25,3.02,2.51,5.44.79,7.27l-970.74.06.33-44.85,14.92-2.82c133.99-.09,268.24-.18,402.74-.27l1.92,2.02,43.05.77,1.58-2.84c37.42-.32,74.88-.37,112.4-.15l2.36,3.21Z"/>
      <path class="cls-10" d="M772.01,967.05c.7-.25.7.33-.02,1.73,1.66,1.51,1.81,3.6.45,6.26l-.16,4.17,39.94,1.53,1.96,2.89-462.64.31,125.45-48.91-.31-11.45c1.91,2.01,1.44,6.17.68,10.86l92.72.72-81.01,31.48,282.92.41Z"/>
      <path class="cls-80" d="M1186.35,966.75l5.6-1.02c28.28,10.17,58.62,12.17,86.8.63l5.63.74,32.24-.52.18,17.73-386.26-.45,7.16-2.03,1.78-14.88.98-2.82c78.08-.09,156.3-.14,234.66-.14l11.24,2.75Z"/>
    </g>
    <g>
      <path class="cls-95" d="M1332.29,743.43c1.35,6.64,1.24,15.56.08,22.39-.8,9.9-4.55,14.48-11.26,13.76l.12,18.1c3.96-4.65,7.24-5.51,9.84-2.59l1.3,10.3c.46,65.43.97,131.16,1.52,197.19l2.88,1.14c1.57,8.7,8.99,14.48,17.56,15.5l243.21-.23c10.91-1.31,15.89-10.77,16.84-20.85l-.51-468.41,2.81-1.75c-4.73-.62-4.04-13.79,1.21-12.7l.42,311.5,3.03-17.05c-1.31-13.41-.78-25.88,3.79-38.88,1.9,3.74,1.86,6.66,5.58,8.29l-.79,6.81c.68-.46,1.43-.57,1.9-.53l.41-70.19c-.29-1.38.2-2.85,1.45-2.78l-.04,4.27c3.45,2.09,4.16,2.7,0,4.22,1.08.14,2.65.41,2.82,1.22.53,2.6.23,9.62,0,12.59.8,3.94-.14,6.38-2.82,7.3,3.45,2.1,4.18,2.67.02,4.22l.02,174.46c2.47,1.92,2.49,2.88.08,2.89l-.47,91.35c-.08,15.5-14.45,25.15-29.33,25.15l-255.91-.03c-10.95,0-20.11-2.78-26.08-11.38-2.44-3.52-4.96-8.52-4.99-13.62l-.18-30.79-2.83-1.18c.26-4.75,0-9.31-.76-13.69l-26.76.43-2.07-2.78,1.4-4.23c13.41-9.11,22.13-23.23,25.28-39.05l3.36-2.91c-.1-2.45-.02-4.98,1.11-7.21-3.75-.25-3.54-1.56.04-2.6.79-9.16,1.05-18.44.78-27.84-1.31-1.24-1.07-2.81.71-4.72l-2.98-18.56,2.48-2.38-2.73-25.35c.09-27.02.19-53.96.28-80.83l2.82-1.68-2.82-7.46c0-70.4,0-140.73,0-211l2.82-1.72c-.85-11.03-1.04-22.59-.58-34.66-1.01-.37-1.8-.75-1.81-1.16-.25-6.61-.68-19.96.31-26.11l2.84-1.62.65,231.51c4.8-4.45,4.58-12.37,8.95-11.32.87.21,5.88,19.65-.19,26.8-3.73-.19-5.72-4.95-8.51-7.89l-.38,45.39c5.32.72,4.89-8.36,9.31-9.65,1.39-.41,3.47,1.5,4.75,2.59Z"/>
      <g>
        <path class="cls-102" d="M1380.21,442.66c.16-1.3.66-1.39,1.5-.34l2.1-2.4c18.73.07,37.49.2,56.29.4l.86,2.42c56.5-.3,112.91.05,169.23,1.06,14.02.05,23.69,15.23,23.65,29.35l-.16,69.17c1.11.29,2.76.79,2.82,1.64.82,12.07.49,27.67,0,39.87,1,5.73.06,9.62-2.82,11.66,1.58.24,2.16.46,2.82,1.66,1.43,2.62.75,53.91,0,59.76.44,2.15-.7,2.85-2.82,3.6l2.82,1.65c0,16.07,0,32.15,0,48.24l-2.82,2.07c-.9,24.64-1.25,49.5-1.05,74.56-1.27,2.08-2.57,1.28-4.24-.5-2.37-14.02-4.01-4.48-4.67,5.55.56,3.8-.3,33.32-2.47,34.36-1.36.65-2.24,1.05-3.58.26-.46-103.83-.38-207.63.23-311.41l-2.84-1.56-.61-33.6c-.23-5.84-3.47-13.21-8.65-16.17-2.73-1.56-58.03-3.3-60.63-1.72-.57,10.32-4.68,16.15-12.33,17.48l-113.58.56c-8.31-1.49-12.83-7.58-13.55-18.28l-56.73.7c-7.38.94-11.75,8.73-12.84,15.57l-.65,48.56-2.29.93c.36,72.14.06,144.03-.89,215.68-1.04,1.53-2.53,1.67-4.47.43-1.84,5.25-4.78,8.36-8.84,9.33l-1.39-1.85.19-47.16,4.07.4c7.39,12.83,5.69-8.85,3.87-13.97-2.12,6.73-4.8,9.08-8.06,7.07l.05-231.66c-4.97-1.57-1.12-8.21.89-11.62s7.21-10.9,10.84-7.39c-.64-3.06,1.21-4.94,5.54-5.65,14.3-1.29,28.69-1.78,43.18-1.48l2.06,2.79Z"/>
        <rect class="cls-118" x="1473.06" y="448.13" width="4.22" height="32.28" transform="translate(1010.2161 1939.218) rotate(-89.9735)"/>
      </g>
      <path class="cls-102" d="M1332.37,805.4c-2.76-1.32-.59-6.09-2.1-8.2-3.25-4.53-5.49,3.16-11.81,8.22l-.19-29.74c2.42.56,6.73,2.48,7.71.8l6.39-10.65v39.57Z"/>
      <g>
        <path class="cls-31" d="M1617.89,515.28c-1.76,3.87-1.21,8.45-1.21,12.7l-.98,2.81c-93.41-.36-186.47-.54-279.18-.54l.18,470.59-2.81,1.75c-.49-.07-1.53-.53-1.53-1.83v-195.35c-2.98-12.52-5-26.48,0-39.57l-.08-22.39.33-213.63.47-49.05c.09-8.94,6.65-20.77,16.41-20.89l58.68-.71c2.28,9.37,1.51,18.45,12.94,18.38l112.07-.64c7.35-.04,9.18-10.93,7.84-17.51l60.07.36c9.34.06,15.99,11.67,16.15,20.25l.64,35.29Z"/>
        <path class="cls-114" d="M1594.53,476.98l-12.94.19c-1.12-2.25-1-4.72-.56-7.69h15.73c1.88-.01,2.2,3.13,1.63,4.25-.49.97-1.35,3.22-3.86,3.25Z"/>
      </g>
      <g>
        <path class="cls-181" d="M1616.68,527.98l.32,297,.19,173.21c.01,10.82-8.51,23.63-20.36,23.64l-241.87.23c-10.42,0-21.07-9.86-21.08-19.47l-.18-475.6,111.87.59,171.1.41Z"/>
        <path class="cls-43" d="M1528.66,794.2l14.15,13.97c-15.94,18.01-37.47,28.56-61.05,29.93-45.55,2.65-84.91-27.96-92.16-72.91l-18.38-2.55,33.76-45.3,22.22,51.49c-6.05.84-10.35-.72-15.95-1.34,7.15,27.35,28.84,46.28,56.97,49.89,22.76,2.92,44.23-6.44,60.45-23.18Z"/>
        <path class="cls-161" d="M1523.07,734.85c4.78-1.43,9.5.95,15.84.37-4.29-16.7-15.13-30.93-30.41-39.67-27.57-15.78-59.88-11.33-82.95,10.59-5.83-4.07-10.28-8.3-14.97-13.63,15.02-16.19,35.02-25.08,56.76-26.66,46.25-3.37,86.06,27.07,93.9,72.5l18.09,2.56-33.32,45.9-22.94-51.95Z"/>
      </g>
    </g>
    <g>
      <path class="cls-81" d="M642.37,290.26c.1-3.95,1.88-3.72,3.03-.02l657.27.08c1.19,2.35.69,10.02-1.81,11.19l2.48,1.84-7.15,33.19,18.38,4.93,1.2,3.21-1.35,2.81c-258.16-.2-516.3.01-774.41.65l-.17,16.46-2.84,1.89,2.81,1.29c-.02,21.92-.04,43.85-.06,65.79l-2.82,1.67c2.61.23,3.09,1.35.69,2.21l.04,440.72,1.03,1.06c103.38-.34,206.54-.08,309.47.79,3.36,3.92-1.26,7.9-5.62,6.79-.61,6.09-8.59,14.9-14.35,16.81-5.69,7.63-17.5,10.49-26.96,11.69.08,2.01-1.33,3.48-4.21,4.42l-9.77,1.04c1.13,4.38-10.74,9.94-13.75,6.68-1.28,2.81-3.27,3.83-5.97,3.06l.9,1.65c-5.21,3.48-9.97,7.6-14.3,12.38l-3.53,1.32c-.69,2.53-.48,4.59.62,6.18l-1.78,1.2c2.94,2.7,7.09,3.75,12.46,3.17l1.57,2.39,4.63.79c9.82-.92,9.72.21,3.89,7.47-.27,1.38-1.39,2.65-2.7,2.81l-279.48-.43c-1.93-1.61-1.6-3.64-.55-5.87l65.46-25.44-77.04-1.08c-.11-4.53-.45-9.01-1.01-13.45-1.27-.23-1.32-.7-.2-1.4.74-105.2.89-210.6.44-316.22-1.12-.17-2.04-.43-2.25-.96-.7-1.79-1.36-36.66-.65-38.45l2.75-3.03c-1.09,0-2.77-.27-2.81-.96-.76-12.74-1.11-32.88.06-45.34-.35-2.66-.02-3.99,2.82-4.79l-2.78-4.12c.1-11.46.2-22.92.3-34.39l2.83-2.03c-.45-17.54-.57-35.23-.34-53.08l-2.35-1.44c2.04-2.66,2.95-6.22,2.73-10.67-4.3.75-4.86-10.98-.76-12.12-2.99-1.5-3.35-1.9.04-3.03-3.94.24-2.88-15.47-2.1-17.19,2.15-.78,3.23-3.65,3.22-8.61-3.48,1.44-3.83.64-1.04-2.42-2.5-.91-2.73-2.02-.07-2.62-.73-.32-1.24-.95-1.51-1.68-1.03-2.79-2.04-46.49-.43-48.29.43-.48,1.2-.67,2.06-.77-.23-6.7.16-13.28,1.17-19.73l.97-2.81c53.94,0,107.89.01,161.85.02l1.71,2.81Z"/>
      <path class="cls-134" d="M1440.62,370.71l.18,71.64,166.01-.04c1.7,0,2.56.59,3.38,1.51l-167.58-.65-46.96-.43c-4.88-.04-9.69.82-13.93-.41-.96-25.3-1.26-51.02-.91-77.15-3.67-.65-3.19-6.27.57-7.13l59.24,12.67Z"/>
      <path class="cls-194" d="M1380.21,442.66l-38.92.45c-4.05.05-8.74,1.81-11.87,3.89-4.1-3.64-8.68-6.13-13.74-7.48-242.72-.04-485.46-.04-728.22.02.21,1.87-.78,3.85-2.86,3.98-1.07.88-2.64,1.51-4.72,1.88l2.79,1.33-.72,35.02,37.44-.09,2.04,2.81c2.6,1.98,1.68,3.56-1.44,4.19l-40.18.72c-9.8,7.67-17.44-5.75-5.27-9.48l.34-28.71c-5.45-.95-8.1-3.95-6.12-9.4-9.21-.8-18.43-1.55-27.64-2.26l.04,53.35-2.81,1.65,2.82,1.34v378.78s1.06,1.05,1.06,1.05l304.21.1,1.74,2.82c1.14.45,1.13.91-.02,1.38l-311.2-.09-.02-444.68,827.81.15c1.27-23.45,1.48-46.53.06-69.13,4.48-.72,9.77-2.34,15.4-1.11v77.51Z"/>
      <path class="cls-156" d="M1329.43,447c-5.73,3.82-11.64,11.56-11.72,19.01l-.75,63.56c-.5,3.1-1.25,4.34-4.58,4.24h-155.67s-1.72-2.83-1.72-2.83c-1.25-.33-1.26-.8-.08-1.41l.98-2.81h155.75c1.11-9.26,1.42-18.99.94-29.2l-156.43-.37-1.72-2.82-2.82-1.59c2.06-.67,2.76-2.85,2.11-6.54.55-6.89-.26-11.45-2.43-13.68l-85.42.4-.96-1.04-2.85-1.55-.75-21.92-36.69-.3-2.04-2.83c-5.86-.44-13.82-.24-18.99,2.21,2.66,4.06,2.42,7.48-1.93,10.07.13,3.49-4.26,10.56-7.33,11.84-2.63,1.1-19.96,1.07-23.15.44-5.82-1.15-14.33-3.72-8.81-10.1,17.76-4.66,37.26-17.72,5.63-9.34l-2.82-1.31c-1.99-3.84-4.47-5.24-7.45-4.21.14,4-1.39,6.29-4.59,6.88l-14.25-4.51c-7.73,5.79-14.72,5.77-20.95-.07-8.85,1.51-17.48,4.03-25.92,7.56-7.76-8.62-15.41-10.98-25.98-5.54-7.92-4.61-14.25-3.38-22.18.42l-7.09-4.45c-10.73,5.57-23.68,5.51-34.65.54-4.34,4.01-9.8,4.11-16.39.28-2.54,2.36-5.28,3.76-8.23,4.2-11.18-5.23-14.11-4.57-8.77,1.98l1.68,6.7c4.86-.18,24.32,7.17,18.18,12.66-11.17.22-22.37-.16-33.59-1.14-11.41,1.95-15.72-.87-12.93-8.45,7.31-11.45,10.96-17.18,10.96-17.18-18.07.09-35.82,1.81-53.23,5.17-9.22-3.45-17.85-3.77-25.91-.98l-26.69-5.52-18.08.78c-3.13,3.15-5.65,3.95-7.54,2.42l-2.32,1.59-37.37-.04-2.02-2.82c.29-1.21,3.64-2.21,4.72-1.88,3.1-1.46,4.05-2.79,2.86-3.98-.21-.58-.08-2.82,1.97-2.82h725.65c4.63-.01,6.81.88,9.31,3.85,3.2.82,5.4,3.25,5.03,6.44Z"/>
      <path class="cls-188" d="M1316.96,749.75l-3.19.49-71.26-88.27,1.11-3.1c-1.47-2.4-1.19-5.74.85-10.02l.13-4.8c-1.33-2.86-1.27-5.17.17-6.91-2.61-.03-2.58-1.11-.04-1.98,1.64-6.99,2.09-15.06-2.26-21.16-1.39,3.46-8.01.41-10.59-1.13-3.85-2.28-7.12-4.94-10.56-7.78-7.31-4.4-27.41,3.51-35.43,6.96-3.15-1.72-5.6-.55-7.36,3.53-13.38-1.17-6.42,13.04,2.78,14.55l.63,3.19c.5,2.64-.97,3.53-4.4,2.66l-19.03,25.13-3.48-.08c-.79-.08-1.41-.16-1.41-.25-.46-42.56-.43-86.25.02-128.82,0-.33.6-.65,1.36-.97l157.53.02c2.08-.21,3.29-.76,4.43-1.43v220.18Z"/>
      <g>
        <path class="cls-178" d="M1381.37,358.04l.34,84.28-1.5.34-2.82-1.31v-73.61c-3.54-.29-7.06.04-10.55,1l-2.04-2.5-827.8.23.23-21.64,778.54-.17,65.6,13.38Z"/>
        <circle class="cls-127" cx="584.75" cy="355.1" r="4.42"/>
        <circle class="cls-16" cx="568.6" cy="355.25" r="3.97"/>
      </g>
      <path class="cls-167" d="M621.6,446.68l-.16,37.8-42.45.1.9-39.18,39.96.06c.94,0,1.57.79,1.75,1.21Z"/>
      <path class="cls-54" d="M584.61,443.52c-.29-1.92.76-3.76,2.86-3.98l1.87.48c.62.15,1.19,1.72,0,2.66-1.27,1-3.63,1.18-4.74.85Z"/>
      <path class="cls-4" d="M1101.34,902.92c5.07,3.2,9.9,7.21,14.53,12.02,20.67,21.48,43.78,39.87,70.48,51.81l-246.88.21,1.33-12.59c.24-2.24,0-4.44,2.11-5.58l5.83,6.33,41.85-36.84c15.63-13.76,30.63-27.31,47.32-38.62,8.67-3.91,18.09-2.88,27.03-.67l2.9-1.45c11.95,7.45,23.17,15.79,33.49,25.39Z"/>
      <path class="cls-117" d="M1154.9,529.57c-.73-.2-1.31-.4-1.32-.63-.48-10.78-.48-22.82-.22-33.63,0-.32.47-.63,1.06-.94l160.96.27.04,34.94h-160.52Z"/>
      <path class="cls-8" d="M1064.91,471.92c.17,1.15-1.21,1.73-4.13,1.75l-38.27.37c-1.5,1.65-2.32.99-1.46-1.06l.1-.81c-3.48-5.41-3.44-6.77-.18-12.31l.24-10.64c.04-1.85.39-3.24,1.37-3.9l41.76.34.57,26.26Z"/>
      <path class="cls-165" d="M1154.42,494.37l.48,35.2.08,1.41.04,130.04,2.81,1.3s-.01,24.18-.04,72.55l-2.82,1.68-4.44-2.84-1.2-2.75.07-233.68-19.23-.08-1.98-2.82c-1.06-2.03-.89-3.73,1.28-4.1l20.14-.61c1.23-4.05.27-9.44-.84-13.73l-124.21.91-2.07-2.81,38.21-.73,4.2-1.39,89.51.1v22.35Z"/>
      <path class="cls-116" d="M1181.94,633.31c4.45-.24,5,6.59,1.45,8.66l1.16,1.17c-2.73,1.82-5.15,3.72-7.26,5.69.29,2.83-.1,4.37-1.15,4.61l4.13,8.48c1.38-.51,1.86-.06,1.46,1.35,2.32.42,3.68,1.3,4.07,2.66l2.95,1.55c1.46,12.02,11.95,22.87,24.51,21.47l2.25,2.47c3.96-1.13,5.09,3.45,1.54,5.42l.45,5.61c-2.54.8-4.76,2.22-6.65,4.25l-32.52,43.86-23.33-13.98.04-75.53,20.45-26.79c1.51-2.03,5-.32,6.47-.92Z"/>
      <path class="cls-143" d="M1244.73,635.17c-.51-7.08-.29-14.24-2.26-21.16,5.74,2.25,6.71,15.5,2.26,21.16Z"/>
      <g>
        <path class="cls-206" d="M1364.81,366.26c.82,1.55,1.59,3.12,2.15,4.76,3.72,10.73,2.43,46.64.85,59.57.78,4.68-.97,6.26-4.42,7.62-16.57.7-33.2-.02-49.89-2.16-241.78-.14-483.54-.08-725.3.16l-2.13,1.43c-15.94-.39-31.73-.9-47.35-1.54-.72,1.63-1.3,1.18-1.77-.85l.06-68.75,1.36-2.81c274.86-.08,549.75-.15,824.67-.23l1.77,2.81Z"/>
        <rect class="cls-117" x="646.17" y="390.5" width="464.96" height="27.69"/>
        <path class="cls-196" d="M618.48,411.97c.77-3.4,3.79-4.64,6.42-8-2.31-3.25-6.31-4.1-7.59-8.95,4.26.3,7.76,5.05,10.1,9.19l-8.13,8.53c-.5-.56-.9-.85-.8-.77Z"/>
        <path class="cls-66" d="M595.78,412.75c-4.05-1.28-6.81-4.91-9.78-8.65,2.92-3.58,5.56-6.5,9.17-8.47l.93,1-7.06,7.09c1.64,2.98,5.92,3.59,6.73,9.03Z"/>
        <g>
          <rect class="cls-119" x="1121.19" y="390.09" width="201.45" height="28.31"/>
          <rect class="cls-117" x="1122.6" y="391.67" width="172.04" height="25.33"/>
        </g>
      </g>
      <g>
        <path class="cls-181" d="M907.23,780.1c.21-.78.42-1.39.65-1.4,16.91-.56,34.1-.31,50.99.82l-1.14,2.07-4.03,4.82c-29.16,19.98-57.51,41.03-85.06,63.15,3.08,2.95,3.78,5.6,2.1,7.94-1.9.62-3.36,1.89-5.01,3.53l-17.56,17.59-309.82-.11v-383.99s.98-2.81.98-2.81c75.5.07,150.99.2,226.49.4l1.29,1.8-.29,81.99c-60.43.48-120.92.72-181.49.73-3.75.44-5.01,2.34-1.15,3.79,60.32.04,120.43-.2,180.33-.71,3.71,3.09,3.64,13.37.83,17.1-60.71.72-121.33.79-181.88.21-3.99,1.24-2.13,3.55,1.46,3.95,60.52-.35,120.86-.13,181,.67,1.62,3.07,2.18,14.13-.36,16.2-4.23,3.46-58.31.55-68.64-.36l-11.46,1.38-101.07-.21c-3.24.33-3.25,1.74-.83,3.46l181.52.12c2.86,1.7,2.77,14.56.99,16.8-2.13,2.69-19.93,1.72-23.8-.21l-6.98,1.13c-50.4-.31-100.78-.32-151.14-.05-1.79.14-1.93,1.91-1.07,3.27h182.57c1.87,2.28,2.04,21.59,1.27,22.86-61.42.97-122.96,1.24-184.62.81-2.4,3.57.13,4.11,3.38,4.4l179.42.14c3.29,3.5,2.28,10.87,1.1,15.78l-182.83.67c-2.4.28-3.11,2.55-1.05,3.89l183.61.31,1.21,1.85c.37,24.36,0,48.52-1.12,72.5.45,5.21,1.28,10.19,2.48,14.93l-1.49,1.57c-61.97.81-123.99,1.2-186.08,1.18l.11,4.12,321.27-.13c-.03-4.36-.03-7.57,4.92-8Z"/>
        <rect class="cls-7" x="622.45" y="486.65" width="25.93" height="113.51" transform="translate(91.8886 1178.7214) rotate(-89.9898)"/>
        <rect class="cls-171" x="629.94" y="665.88" width="9.95" height="114.03" transform="translate(-88.1305 1357.6405) rotate(-89.9863)"/>
      </g>
      <g>
        <path class="cls-54" d="M621.44,484.48c-1.1-.13-2.74-.49-2.81-1.27-.65-7.18-.59-21.39.12-28.53-.83-4.26.12-6.93,2.85-8.01,2.17-1.11,4.14-5.04,7.41-5.2,13.87-.7,22.43-2.63,37.48,3.51,5.25,2.14,6.88,1.59,11.87-.36,7.01-2.75,16.01,2.63,22.79,2.65,2.34-2.44,6.23-1.25,8.52-1.7,4.49-.9,6.71-1.82,11.83-2.06l30.83-1.49c1.68-.08,3.16.25,3.84,1.21.49.7.05,2.94-.75,3.51-3.26,2.29-3.63,5.79-5.59,8.51-2.91,4.02-6.06,6.65-5.97,13.09,9.2-1.39,26.71-.62,30.3,1.52,4.02,2.39,9.92,3.79,13.39-.52-5.73-5.45-12.39-7.27-19.63-7.16-.45-6.22-1.89-11.15-6.2-16.03,8.46-7.86,13.32,6.52,20.23-.89,6.78-7.27,12.43,8.42,18.7-3.34,11.27,5.91,23.6,6.4,35.05.79,2.33-1.14,6.32,2.54,8.3,4.57,7.12-4.88,15.17-5.43,22.09-.57,9.46-5.79,19.97-3.89,26.49,5.77,8.05-3.77,16.74-7.98,25.79-7.97,3.2.58,7.77,7.08,12.25,4.11,3.02-2,5.89-5.23,10.53-3.7l13.7,4.51c-.84-4.79.19-7.08,3.51-7.55,4.59-.65,5.67,1.29,8.06,4.57,2.8,3.84,7.78-1.68,10.38-1.6l13.78.46c-1.87,3.82-4.73,8.51-8.11,9.81l-20.56,7.89c7.03,5.23,14.97,5.02,23.14,4,2.83-.35,6.25,2.31,8.71-.74,1.75-2.17,5.37-4.19,4.66-8.99-2.89,2.54-7.16,2.82-8.99-.97,5.59.82,12.01.08,13.34-3.92.42-1.26-3.36-3.8-2.68-4.86,4.28-6.73,8.88-2.84,17.03-5.41,1.14-.36,3.42.07,4.24.53.71.4,1.23,1.51,1.21,2.7,2.29,3.36,2.76,13.23-1.61,14.54-1.82,4.72-2.04,7.65.18,12.31,1.26.06,1.17.34-.1.81l-.98,2.81c-82.61-.02-165.24-.03-247.88-.05l-1.73-2.81-1.56,1.97c-.31,100.31-.45,200.74-.42,301.28l3.11,2.47,134.67.06.98,1.4c-2.38,2.78-2.09,6.51-2.1,10.82l-326.39.13c-.9-3.85-1.11-7.02.2-10.1l186.55-.03c3.72-4.96-1.32-10.89-1.23-14.59,1.33-7.19,4.36-13.13.64-20.46l1.43-6.66.16-44.41-55.03-.11h-105.47s-23.76-.19-23.76-.19c-2.59-.02-4.22-3.37-3.89-5.19.38-2.05,2-4.24,5.21-4.24l182.13-.29c1.34-3.25,1.35-7.48-.13-10.66l-28.74.05-94.23-.23-56.98.16c-3.66.01-5.37-.66-6.76-3.59-.87-1.83.3-6.37,3.42-6.37l183.98-.16v-18.04s-182.78.05-182.78.05c-3.52,0-4.05-3.86-3.46-5.91.51-1.78,2.2-3.02,4.74-2.98l26.8.42,27.7-.74c12.5-.33,25.39.43,25.48.4,6.88-1.82,12.42-.23,18.92-.2l51.53.18c3.47.01,5.77-2.04,9.83-.62,6.43,2.26,14.58,1.62,20.9-.24,1.02-4.3,1.08-7.92-.33-11.37l-181.93-.02c-3.02,0-5.02-4.05-4.55-5.77.58-2.09,2.77-3.3,5.59-3.29l99.89.22c5.72.01,11.26-2.56,16.96-.75,5.23,1.66,10.27.32,15.32.43l20,.45c9.96.23,19.43,1.21,29.19-1.25.68-3.47.66-6.86.08-10.78l-24.85-.37-42.38-.14-42.44.29c-10.89.07-21.23.06-32.12.01l-39.59-.17c-3.09-.01-5.62-1.67-6.28-4.59-.45-1.99,1.98-4.98,5.06-4.96l55.76.24,18.78.28c6.31.09,12.45-1.33,18.76-.03,2.24.46,6.91.15,9.39-.13,10.88-1.21,20.83-.24,31.5-.07l25.21.4c7.62.12,15.15-2.27,23.34-.56.24-3.57.61-6.86-.04-9.55-.98-4.02-4.6-1.84-6.77-1.84h-55.34s-120.24.24-120.24.24c-2.67,0-5.23-3.46-4.85-5.11,1.69-7.19,12.64-2.88,25.55-4.93l91.42.61,70.43-.13.03-78.79-228.09-.33-.04-57.53c8.21-1.61,14.58.72,22.64,1.95,2.94.45,9.31-1.76,10.82,2.29-.14,1.56-2.13,4.86.25,6.14,1.48.8,3.63.73,5.73-.17l-.41,34.34c-.03,2.66-5.36,1.77-6.15,2.75-1.09,2.57,1.31,4.95,3.12,5.06,1.47.09,3.8-2.79,5.27-2.81l39.09-.57c1.64-.02,2.61-.46,2.76-1.5Z"/>
        <g>
          <path class="cls-71" d="M770.45,472.93l2.15,2.6c-.85,5.54-.94,11.13-.26,16.76l-2.78,1.97-.43,282.98,177.3.09c6.53,0,11.91,1.59,17.59.25l-6.28,4.02c.08-.45-.23-1.26-1.38-1.68l-49.13.19-139.43-.05.03-303.74c0-1.77.33-2.37.82-2.87.38-.38,1.48-.49,1.81-.51Z"/>
          <path class="cls-156" d="M876.5,466.71c-.34-3.22,2.38-8.46-.97-10.94l-2.92-2.16c-.97-.72.87-3.39,1.98-2.89,3.76,1.69,4.63,1.66,7.79-1.12-1.22,4.87-1.78,6.17.19,7.06,2.88,4.09,6.06,2.63,8.93.97.8,7.7-9.55,12.88-14.99,9.08Z"/>
          <path class="cls-156" d="M905,464.25c.23,3.13-3.02,3.11-4.36,3.45-2.06.53-5.73.09-6.01-2.78-.34-3.46,2.62-4.73,4.8-4.45,1.66.21,5.39,1.34,5.57,3.78Z"/>
          <path class="cls-156" d="M1021.15,472.17c-1.77-2.71-4.61-3.95-7.38-6.4,3.62-2.04,5.88-3.41,7.2-5.91l.18,12.31Z"/>
          <path class="cls-156" d="M779.91,455.48c1.06-1.35,3.92,1.99,3.27,3-.84,1.3-1.52.18-2.17-.14-.96-.46-2.23-1.43-1.1-2.86Z"/>
          <path class="cls-156" d="M910.34,452.48c.4-.53,2.33-.51,3.09-.31.57.15,1.37,1,.79,2.06-.68,1.25-1.59.7-2.14.85-1.21.33-2.99-.94-1.74-2.61Z"/>
        </g>
      </g>
      <path class="cls-27" d="M1180.26,661.91c-3-1.65-3.62-5.3-4.13-8.48,3.04,1.5,3.67,5.27,4.13,8.48Z"/>
      <g>
        <g>
          <path class="cls-181" d="M1128.2,494.38l24.1.1-.15,237.46c0,1.38-.9,1.77-1.61,1.77l-5.52-3.21c-8.9-5.17-16.36-11.7-24.49-18.81l-10.48-9.16c-17.18-10.08-35.1-18.05-53.69-25.02-2.96-1.11-7.39,0-8.14,1.99-1.22,3.25-.03,6.89,2.82,8.85l21.22,14.61c-8.35,6.81-8.53,12-7.98,22.65l-1.25.46-24.07-30.29c-2.89-1.9-6.53-1.85-10.93.15l-1.27-1.55c-1.76-1.21-1.93-2.28-1.13-3.85l-12.09-9.14c-36.8,39.54-102.96,24.15-118.65-27.22,1.38-4.69,6.07-6.08,14.08-4.15-5.82-15.39-12.22-30.05-19.18-43.98l-27.57,37.54c4.97.46,9.75,1.53,14.33,3.23,11.19,55.72,68.87,87.62,121.64,64.83l4.86.91c.87-.5,1.6-.84,1.84-.63,2.84,2.51,8.78,8.46,6.8,11.72-1.23,13.76,8.03,26.25,3.78,32.65-18.32,3.62-35.76,11.23-51.45,21.27-4.97,1.78-10.51,2.14-16.6,1.07l-178.95-.35c-.4-94.96-.03-189.64,1.1-284.04l1.34-2.81c118.5.04,237.01.08,355.56.12l1.74,2.82Z"/>
          <path class="cls-132" d="M1008.02,617.32l16.76.82c-7.61-28.61-32.43-46.61-61.77-48.71-19.13-1.37-37.32,6.21-51.48,19.49-6.38-3.83-10.94-8.78-15.58-13.68,16.72-16.62,37.35-25.6,60.37-26.32,45.25-1.42,82.91,28.3,90.81,72.74l18.22,2.56-33.96,45.67-23.37-52.57Z"/>
        </g>
        <path class="cls-213" d="M1026.76,694.39l-24.15,8.04c-1.3.43-2.32,1.11-2.84,1.99-.97,1.66-.73,3.38.62,4.99l2.65,3.16c-26.18,12.31-56.43,13.13-83.75-1.89-22.19-12.2-39.62-34.57-44.61-62.25l-17.56-2.65,34.02-46.32,22.28,53.98-16.26-1.46c6.56,24.32,26.74,41.71,48.88,47.06,25.33,6.12,50.41-2.3,67.09-21.54l11.55,9.1c1.53,1.21,3.68,1.81,3.67,4.08,0,1.09-.71,2.49-1.61,3.71Z"/>
        <g>
          <path class="cls-191" d="M1021.04,472.98c.53,0,1.43.04,1.46,1.06l41.96-.02,87.41-.92c.27,6.94,1.95,12.34.7,19.32l-21.59.49c-1.57.04-2.5.59-2.78,1.47l-358.64-.12c.01-6.82-1.59-14.39.89-21.33l250.59.05Z"/>
          <circle class="cls-70" cx="814.98" cy="483.79" r="4.69"/>
          <circle class="cls-137" cx="783.38" cy="483.62" r="4.14"/>
          <circle class="cls-50" cx="799.27" cy="483.56" r="4.15"/>
        </g>
      </g>
    </g>
    <g>
      <path class="cls-174" d="M883.28,873.11l-1.28,2.96.5,3.35,42.35,45.08-.75,3.35-1.7,2.44-57.16-16.45c-2.66-.45-2.98-1.95-1.77-4.46-1.41-2.34-1.64-3.88.73-2.72,1.74-1.01,9.38-8.67,7.8-9.56l-3.7,1.69c-8.25-2.88-16.5-5.77-24.76-8.65l-.98-3.32c2.2-1.99,4.33-4.21,5.62-6.79-.08-.5-.05-.96.02-1.38-.56-.98-1.4-2.45-.87-3.11,2.05-2.54,18.43-19.22,19.81-19.33s2.6.39,3.63,1.32c.89-.63,2.25-1.53,2.88-1.05,3.39,2.59,14.76,13.8,9.65,16.64Z"/>
      <path class="cls-189" d="M815.81,938.64c.58,3.55-2.31,5.12-8.68,4.7-6.45,2.58-12.62,5.67-18.52,9.26-.56-9.99-8.8-18.11-17.74-21.86.13-1.18,1.02-2.28,2.66-3.29l13.75-6.68c3.68-1.05,7.33-1.39,10.97-1.02,2.97-1.49,3.89-2.95,2.75-4.36,10.51-4.54,25.3,1.51,31.67,10.46,4.82,6.78,2.5,7.45-4.34,8.53-1.25,3.59-8.44,6.66-12.52,4.27Z"/>
      <path class="cls-157" d="M750.63,945.86c1.31-3.76,2.79-6.56,6.68-8.98l10.25-6.38c4.36-1.03,11.07,4.14,14.42,7.86,2.61,2.89,6.97,9.5,7.16,13.25.07,1.32-8.09,3.59-8.88,1.41l-29.53-.48c-.59-2.06-.62-4.29-.09-6.68Z"/>
      <path class="cls-28" d="M871.99,897.09c.71,1.74-7.82,10.29-9.01,10.72-4.03-10.01-15.93-7.86-23.52-3.39l-1.36-.56c-3.16,1.29-6.68.09-9.89-.25,3.66-6.28,8.92-11.91,14.35-16.81l29.44,10.29Z"/>
      <path class="cls-84" d="M773.52,927.45l-1.57,2.71c9.45,3.95,15.2,11.39,17.66,20.53l26.19-12.05c1.64,4.04,9.02,2.7,17.63,7-.35,1.71.79,3.36,3.45,4.95l-1.46,4.39c-6.04-.71-12.11-2.6-18.2-5.68-7.79-4.79-16.3-.46-23.73,3.62-.32.17-.36.84-.32,1.65.3.99-.1,1.32-1.13,1.05-4.88,1.31-8.97,3.81-12.3,7.49-2.29,4.38-4.87,6.27-7.74,5.68l.02-1.73c.15-2.27,2.85-4.24,2.19-7.13-4.47.57-8.31.9-10.71-1.13l.68-2.28c-6.35.76-11.26-.33-14.71-3.27-.35-2.57.4-5.19,1.16-7.38l.58,6.04,37.12-.57c-3.43-11.15-11.67-17.78-20.77-20.82l5.97-3.06Z"/>
      <path class="cls-158" d="M763.49,958.79c-3.7-.03-8.04.6-12.11-.57-2.35-.67-1.74-3.68-1.92-4.99,5.63-.54,11.04.97,17.11,1.09l14.25.28c-1.37,2.99-3.97,4.28-7.31,4.26l-10.02-.07Z"/>
      <path class="cls-116" d="M1316.96,749.75l-.38,107.85-7.81-35.71c-8.45-38.62-23.99-90.98-46.9-121.89-2.84-3.83-5.38-7.45-9.8-8.44-4.87,2.51-9.1-9.47-10.3-13.69-.42-1.48-1.63-6.56-1.39-7.55.11-.49.46-.92.86-1.34-3.96,1.15-5.1-3.4-1.56-5.38-5.05-2.17.06-7.78,3.94-4.71l55.68,68.37,17.66,22.5Z"/>
      <path class="cls-142" d="M924.11,927.85l14.27,15.26-56.52-9.53-1.26-1.27c.84-13.05-16.99-9.43-24.1-4.1l-1.48-.48-4.22,1.45c-2.68,1.33-4.99,2.13-5.92-1.38-.72-4.7,3.62-10.82,8.71-9.67l4.81-4.67c-.7-1.62,3.61-5.36,5.06-4.09.37.46.86,1.26,1.68,1.51l58.96,16.97Z"/>
      <path class="cls-20" d="M863.47,909.38l-5.06,4.09c-.42-.66-.94-1.22-1.64-1.35-1.24-.27-1.2-.68.01-1.21,3.33-5.9-2.37-7.64-17.09-5.22-.37-.58-1-1.52-1.59-1.82,8.61-5.91,20.56-6.58,25.1,1.84l8.8-8.62,9.52-8.47c.42.44.64,1.13.34,1.89l-18.38,18.87Z"/>
      <path class="cls-77" d="M878.99,933.38l-1.35-.18-19.62-3.85c.25-4.96,11.56-6.75,16.16-5.59,5.55,1.4,9,5.4,4.81,9.61Z"/>
      <path class="cls-200" d="M881.87,933.59c-.12.55-.89,1.09-1.38,1.4l-1.5-1.61c.17-1.14.81-5.12-.51-6.52-6.42-3.8-15.24-1.97-20.46,2.5-.46-.09-1.03-.12-1.51-.09l-1.48-1.52c5.54-4.4,13.19-6.88,20.67-5.08,5.49,1.33,7.16,6.25,6.17,10.92Z"/>
      <g>
        <path class="cls-207" d="M828.21,903.62c2.76-3.18,7.32-2.98,9.89.25,2.55-1.45,3.32-.54,1.59,1.82-1.56,3.57.17,5.36,5.18,5.37,4.11-.13,8.07.22,11.9,1.06,2.22-1.52,2.97-1.16,1.64,1.35,2.45,3.34-1.43,6.84-4.81,4.67-2.15,1.36-4.86,1.74-8.15,1.14,1.18,3.12.99,5.97-.56,8.53,1.93.75,3.91,1.21,5.92,1.38-1.21-3.86,2-4.75,4.22-1.45,2.13-1.37,2.89-.71,1.48,1.52.99,2.33.24,3.34-1.94,4.02,7.72.82,15.42.8,23.07-.08.54-1.17.99-1.09,1.35.18,2.02-1.66,2.46-.82,1.5,1.61.12,1.21.23,2.57-.47,3.53-1.95,2.66-15.6,3.63-19.41,3.45-1.58,3.72-3.44,4.89-7.04,2.92.44,3.12-.45,4.71-2.66,4.76-7.99-3.96-16.18-7.49-24.57-10.59-.25.02-.63.32-.79.82,4.44-.55,22.5,6.04,19.76,10.94-2.33,4.17-12.83-.98-11.88-5.18-4.63,1.17-20.85-.12-17.63-7l17.56-7.46c-8.12-11.08-18.91-16.18-32.11-15.55,8.52,2.82,17.77,4.58,24.08,12.04-8.68-2.75-15.57-8.64-25.39-7.93,6.26,2.92,12.8,4.92,17.17,10.97-10.48-4-19.23-10.02-29.84-9.96l29.97-12.55c3.88-1.62,6.78-5.05,10.97-4.6Z"/>
        <g>
          <path class="cls-153" d="M858.02,929.35c5.63-1.84,17.52-2.1,19.62,3.85-4.83,4.75-19.03,3.51-30.39,2.1,2.41-4.4,6.42-4.37,9.26-6.05.59-1.24,1.09-1.21,1.51.09Z"/>
          <path class="cls-176" d="M823.73,913.93c8.61,4.13,22.2,9.59,17.96,13.9-4.74,4.82-8.72-6.41-20.02-11.39-.7-1.53.52-3.25,2.07-2.51Z"/>
          <path class="cls-148" d="M856.77,910.9v1.21c-12.19,4.51-22.88-.21-20.78-4.22.58-1.11,2.37-1.81,3.68-2.22,5.47-1.05,15.94-.89,17.09,5.22Z"/>
          <path class="cls-87" d="M853.6,918.13l-8.71,9.67-3.52-10.99c5.38-.53,9.04-.96,12.23,1.32Z"/>
          <path class="cls-141" d="M836.94,913.02c-4.63,2-7.22.96-8.87-.95-1.43-1.65-2.89-3.87-2.01-6.39,5.89,1.39,8.19,4.61,10.88,7.34Z"/>
          <path class="cls-153" d="M850.81,929.19l-5.07,4.76c-1.5-2.67-.26-4.86-.84-6.14,2.31-.04,4.62-.08,5.92,1.38Z"/>
        </g>
      </g>
      <g>
        <path class="cls-111" d="M938.38,943.11c2.99-2.98,7.16,2.62,4.53,5.68,1.4,4.56,1.39,16.4-3.44,18.16,4.72,1.38,1.68,12.61-.45,15.9l-8.5,1.01c-2.95-.9-7.03-.15-10.88-.18l-72.2-.51-33.27.47-44.25-1.6c-1.22-4.71-.36-9.79,2.05-13.24,5.58-7.99,12.15-17.3,20.04-13.16,2.81.95,3.18.6,1.13-1.05-1.07-.8-2.16-1.14-3.29-2.76l17.98-8.08c9.17,1.81,17.09,5.63,26.89,9.68-.11-3.11-3.37-4.53-4.97-6.61,1.62-.96,2.65-.83,3.66-1.15,3.23,1.61,6.18,3.78,10.49,4.58-4.82-6.21-11.68-8.24-18.37-10.34-.12-.32-.41-.66-.74-.85-1.16.34-2.92.72-3.8-1.47,2.27-.56,3.59.1,4.54.77.29.2.53.46.79.73,8.82.66,16.84,5.22,26.03,8.54-6.53-7.52-15.43-9.53-24.21-12.29,10.94-1.21,19.99,4.27,29.65,8.36.16-2.17-1.81-3.22-2.77-4.54,9.41,0,18.18.57,25.44-4.14-1.06-1.75-.44-2.41,1.38-1.4.47-1.04,1.24-2.59,2.09-2.5,12.52,1.31,30.26,4.22,42.42,7.15,4.38.46,8.38,2.09,12.01,4.88Z"/>
        <path class="cls-192" d="M792.03,955.62c.13-.53.52-.95,1.13-1.05,7.71,3.34,14.65,10.34,15.31,19.84-4.05-7.84-8.91-14.84-16.44-18.79Z"/>
        <rect class="cls-198" x="772.06" y="975.67" width="154.16" height="2.81"/>
        <circle class="cls-57" cx="922.69" cy="963.42" r="9.34"/>
      </g>
      <path class="cls-129" d="M1128.43,780.19c1.88-2.82,3.38-2.02,4.5,2.39-1.52.13-4.29.63-5.09,2.68l-17.68,45.52c-1.53,3.95-3.93,5.02-7.55,4.21-7.67-1.72-14.36-6.23-21.36-9.4,7.55-1.25,13.92-5.78,18.94-11.71,8.97-10.61,16.91-21.63,22.4-33.77,1.49,1.03,4.21,1.09,5.84.06Z"/>
      <path class="cls-90" d="M1053.68,871.53l11.26,7.46c-.45.57-1.43,1.19-2.77,1.18l-24.26-.51,13.25-8.98c.78-.53,1.97.49,2.51.85Z"/>
      <g>
        <path class="cls-40" d="M1015.47,756.31c4.61-7.83,14.15,11.81,8.7,15.14l.13,1.14c-48.18,24-94.32,59.63-134.97,96.79-1.4,1.16-2.61,2.83-4.58,3.7l-1.48.02c-.08-1.7-.92-3.22-2.39-4.79l-10.13-10.81-5.86-8.41c29.73-25.03,60.8-47.01,92.84-67.51-.53-1.81,1.57-3.15,6.28-4.02.31-1.03.66-2.04,1.17-2.96,3.39-5.99,40.75-21.56,47.36-19.62,1.01.3,1.97.78,2.91,1.31Z"/>
        <g>
          <path class="cls-79" d="M1081.25,825.6c7.13-.15,17.75,3.55,21.36,9.4,7.43.44,8.71,3.59,4.98,9.42,22.15,3.94,44.23,7.97,66.22,12.09l3.68,2.43c15.03,1.46,29.05-.49,42.08-5.85l4.55,1.28c.44-1.01,1.25-2.49,2-2.34,9.73,2.03,21.9,6.52,30.75,10.56.77.73.13,2.29-1.92,4.68.86.38,1.84-.26,2.95-1.9.31-1.05,1.05-2.59,1.72-2.43,7.01,1.71,56.83,15,57.71,17.89-.87,10.03-1.45,20.11-1.75,30.27l-.04,2.6c-1.1,2.24-1.2,4.75-1.11,7.21-2.87,19.16-13.23,36.12-30.05,46.19-33.99,14.56-63.36,12.21-98.03-.35-15.33-2.12-28.3-11.83-40.41-21-13.04-9.87-24.78-21.27-36.19-32.84-4.57-2.71-7.38-6.03-8.42-9.99-12.11-10.73-24.38-21.24-36.8-31.52-3.29-1.1-6.91-1.06-10.86.12-3.95,4.93-9.69,6.93-15.76,8.13l-3.86,6.13c-28.59,23.28-56.28,46.95-83.06,71-4.67,1.4-9.8-3.46-8.08-8.01l-4.53-5.68c-5.77-2.5-15.97-8.7-14.27-15.26l-15.56-16.97-29.5-31c-1.01-1.06,2.24-3.66,2.95-3.81.56-1.58,1.48-2.57,2.75-2.98-1.44-3.63,1.22-5.48,4.58-3.7,2.51-5.39,5.6-8.37,9.27-8.95,38.54-32.35,77.59-63.51,122.71-86.29,1.29-.65,2.79-.9,4.34-1.03,5.61,3.47,10.42,8.48,14.42,15.03,9.43,10.52,19.81,19.98,31.13,28.39,5.23,2.35,8.57,5.37,10.04,9.07Z"/>
          <g>
            <path class="cls-85" d="M1314.43,920.91c-.64-2.39-1.03-5.64,1.11-7.21-.04,2.66-.78,5.02-1.11,7.21Z"/>
            <path class="cls-135" d="M884.76,873.09c-.81.62-1.43,2.52-2.75,2.98.14-.84.1-2.49,1.28-2.96.39-.16,1.03-.14,1.48-.02Z"/>
            <path class="cls-103" d="M1300.13,902.54c1.51-1.81,2.02-.66,1.54,3.44-3.99,18-13.59,34.66-29.93,44.27-39.44,23.19-88.8-2.85-121.95-31.35l-77.85-66.92c-5.65-4.85-10.45-5.23-16.51-.99-31.45,22.02-60.01,46.46-90.28,70.4,8.16-10.75,19.53-17.02,29.36-26.01l60.24-46.63c5.96-4.61,12.88-3.32,18.74,1.72l78.5,67.5c14.61,12.56,29.8,22.57,47.1,30.4,13.13,5.94,26.07,7.85,40.35,7.91,20.6.09,39.4-8.33,50.14-26.3,5.16-8.64,9.09-18.01,10.56-27.45Z"/>
            <path class="cls-135" d="M1025.66,773.11c-50.74,24.65-93.43,60.79-136.32,96.28.75-3.16,3.18-4.99,5.1-6.87l-12.86-16.8c.21-.12.79-.63,1.07-.97l13.53,16.44c29.79-24.98,59.12-48.63,91.21-69.71l36.79-20.03,1.49,1.66Z"/>
            <path class="cls-184" d="M1101.34,902.92l-8.81-5.56-27.59-18.37c-4.47.24-12.56-2.17-11.26-7.46,1.57-4.74,8.84-5.2,13.24-1.9,13.03,9.76,24.33,21.12,34.41,33.3Z"/>
            <rect class="cls-26" x="924.08" y="865.32" width="2.53" height="81.69" transform="translate(-369.65 886.32) rotate(-43.52)"/>
            <path class="cls-125" d="M1257.9,865.36c-2.99,11.11-3.17,23.72,4.62,32.41l16.66,18.6c-16.41-12.29-25.71-20.52-24.7-39.95l.47-9.16c.57-1.19,1.45-2.35,2.95-1.9Z"/>
            <path class="cls-193" d="M1301.67,905.98c-.15-1.83-.6-2.99-1.54-3.44l3.31-21.31c2.18,8.23.12,16.2-1.77,24.75Z"/>
          </g>
        </g>
      </g>
      <path class="cls-53" d="M1252.07,691.56c-1.13.82-2.21,2.19-3,3.88-8.25,17.68-30.18,19.06-30.12,27.61,0,1.03,1.29,2.15,2.57,2.28.31,2.08-1.77,2.84-3.18,1.29-.16-.85-1.14-1.91-1.75-2.55.03-4.3-.27-8.7-.87-13.19.25-2.18,2.23-4.28-.61-7-1.23,1.25-2.55,2.54-4.28,2.8.94-4.26,5.98-5.45,6.21-9.85,1.01-.53,2.34-.91,3.01-.19,3.05,3.27,6.28.08,9.54-3.4,4.24-4.53,8.19-14.2,8.94-20.33-3.95-2.97-1.07-7.18,2.72-3.92l6.75,16.83,4.08,5.74Z"/>
      <g>
        <path class="cls-85" d="M1316.58,857.6l3.25,21.11c.21,1.33-2.75,4.23-2.75,5.56l-.14,23.96c0,1.47-.59,2.42-1.36,2.86l-.12-28.7-57.56-17.04c-.85,1.42-1.83,2.06-2.95,1.9.05-1.04.49-3.42-1.47-4.01l-29.36-8.9c-2.53.54-4.68.18-6.46-1.09-12.01,5.5-25.4,7.39-40.17,5.65-23.66-3.44-47.83-6.58-71.46-12.61-.86-2.57-.09-5.28,1.01-7.37-1.19-2.09-2.91-2.88-4.43-3.95,1.39-1.54,2.91-3,4.57-4.39l18.46-47.17c2.01-1.58,4.44-1.87,7.29-.86l3.65-.4c16.63,4.55,33.43,7.69,50.39,9.43,2.63-2.11,8.16-7.63,6.56-9.54l-2.73-2.44c1.51-8.45,3.88-16.7,7.1-24.74l-26.24,31.98-4.09.55-.82,1.27c-12.82-2.3-25.59-5.13-38.32-8.51-.14,4.77-6.22,5.11-5.84-.06-4.44,3.56-8.67-2.95-7.93-8.06.36-2.46,23.56-36.85,27.1-41.7l3.27.14c2.01-3.65,6.8-.61,5.52,3.21,1.88-3.16,3.36-2.21,4.44,2.84l2.83-1.58,19.43,11.65,30.09-39.96,3.49.02c6.15-9.48,13.25,1.48,4.88,4.2.85,2.74,1.46,10.78-.09,12.77-.11.14-.93-2.98.97.42,1.55-1.68,2.76.86,1.75,2.55,1.29,1.71,8.56-1.4,3.18-1.29-3.77.68-4.32-2.4-1.66-9.24,12.7-5.67,22.23-13.98,28.59-24.93l3.62.39c5.34-4.35,11.95,6.04,14.83,10.66,28.46,45.68,44.67,102.95,49.68,155.38Z"/>
        <g>
          <path class="cls-34" d="M1224.12,854.37c-15.03,6.15-31.04,6.83-46.63,4.57-.04-.66.49-1.41,1.49-1.41l23.75-.17c14.4-.1,25.22-22.34,33.76-36.7,13.51-23.33,21.64-48.19,31.16-73.04-7.77,36.01-24.13,68.81-44.6,98.92-1.13,1.66-4.43,2.85-2.55,5.26.73.94,2.27,1.92,3.6,2.58Z"/>
          <path class="cls-96" d="M1193.53,782.07c-2.03,13.24-15.57,10.12-25.53,6.84-.28-.09-.38-.71-.43-1.49l35.46-43.24c-1.08,13.33-9.62,26.53-9.5,37.89Z"/>
          <path class="cls-169" d="M1167.57,787.43c5.36.82,11.89,4.28,17.85,3.12,4.26-.83,6.23-6.12,8.11-8.47l28.37-35.74c.33.41.69.75,1.23,1.05l-35.31,46.09c-18.98-2.3-36.92-6.69-54.89-10.88-1.59-.37-3.34-1.58-4.5-2.39,8.59-9.8,12.87-24.97,22.53-33.94l-19.28,33.45,23.54,5.85,12.35,1.88Z"/>
          <path class="cls-30" d="M1218.34,726.62c1.28.05,2.31-1.03,3.18-1.29,8.86-2.67,14.8-9.61,21.73-16l10.33-9.52c-6.17,15.13-19.25,24.16-34.54,29.16-.72-.36-.84-1.28-.7-2.36Z"/>
          <path class="cls-22" d="M1121.29,843.59c4.64-18.61,10.54-36.12,19.63-52.59-4.88,18.75-11.82,35.61-19.63,52.59Z"/>
          <path class="cls-126" d="M1216.59,724.07c-.51.35-1.1.85-2.44.7l1.56-13.89c2.52,3.63,3.64,9.41.87,13.19Z"/>
        </g>
      </g>
      <path class="cls-123" d="M1242.47,614c4.36,5.97,3.99,14.26,2.26,21.16.04.59.28,1.14.04,1.98-2.92,3.37-5.9,6.85-8.95,10.42l-3.23-1.21c-3.56-.67-4.62-1.61-3.18-2.81-1.33-6.57-5.65-9.74-12.97-9.51-4.22.88-8.14-1.4-11.74-6.85-3.68,2.27-16.47,9.58-20.05,8.63-1.22-.32-2.03-1.46-2.72-2.51-4.44-1.5-8.5-2.84-10.66-5.84-2.98-4.15-4.11-10.36-.61-13.57,1.22-1.12,6.5.39,7.25-1.19.58-1.23.65-4.32,2.76-5.11,1.12-.42,3.51,1.82,4.82,1.83-.04,0,12.77-7.31,31.68-8.52,6.04-.39,10.8,7.43,15.86,9.41l9.44,3.69Z"/>
      <path class="cls-23" d="M856.77,910.9l-17.09-5.22c5.16-2.89,11.51-4.86,17.73-2.88,2.52.8,3.87,3.46,3.19,5.77-.37,1.25-2.07,2.45-3.83,2.33Z"/>
      <path class="cls-75" d="M1216.44,634.04c8.87.37,11.27,2.94,13.83,11.26-6.69,2.08-10.04,3.12-10.04,3.12-1.47-5.11-5.61-8.21-10.77-8.81-3.19-.37-4.43.64-4.84,3.12-.44.24-1.35.46-1.61.91l-2.16,3.25c-.91,5.05-2.04,6.32-3.39,3.79-2.69,2.37-4.96,0-6.82-7.09-1.89-1.24-4.31-1.78-7.26-1.63l-1.45-8.66c8.36-.6,16.68-5.38,24.48-10.59,1.51,5.64,6.1,8.2,10.03,11.33Z"/>
      <path class="cls-48" d="M1181.72,663.26c-.43-.45-.9-1.05-1.46-1.35l-4.13-8.48c-.29-1.79,0-3.32,1.15-4.61.02,1.11-.33,2.43,1.39,3.36.09-4.41,2.46-6.96,5.24-7.75,3.35-.95,7.69,1.17,7.72,4.86-1.41.45-5.16.34-5.32,2.14-.13,1.5.64,3.65,1.58,5.11.77,1.18,3.3.86,4.84-.53.63,3.34-1.27,5.5-2.77,6.35-2.65,1.52-5.73,1.17-8.26.89Z"/>
      <g>
        <path class="cls-59" d="M1243.62,658.88c-.92,1.47-4.67,2.21-3.94,4.71-.22,3.84-3.89,3.27-6.56,1.23-3.95-3.01-5.44-16.31-.52-18.47,4.6-2.17,4.08-8.82,12.18-9.21,4.81,6.24,2.6,15.71-1.16,21.73Z"/>
        <path class="cls-152" d="M1239.7,652.91l-4.11,6.18c-.08-5.82.06-12.53,6.21-16.16-1.26,3.77-1.97,6.81-2.1,9.98Z"/>
      </g>
      <g>
        <path class="cls-89" d="M1042.32,701.27c12.7,14.19,26.87,31.53,38.96,47.7.2.26-.21.97-.79,1.81-23.39-8.36-33.6-27.17-42.76-15.83l-8.2-1.52c-1.39,1.38-3.39.67-6-2.13-.62.34-1.24.61-1.88.65-.98.06-10.75-12.77-12.44-15.17-.68-.97-.26-2.05.56-2.96-2.77-3.48-2.44-3.72,1.1-5.77,1.73-1,27.38-9.35,28.72-8.69,1.01.5,1.93,1.1,2.73,1.9Z"/>
        <path class="cls-15" d="M1064.29,725.62l22.31,27.09c-3.51,1.82-4.76-1.44-6.11-1.93l-38.17-49.51c-2.2.53-4.15-.34-5.85-2.62l-23.73,7.63-2.75-2.08c-1.59-2-4.91-1.45-7.38-1.77-.32-1.03-.39-2.13.26-3.05s18.95-6.61,21.14-7.04l2.74,2.05c2.88-.96,9.49-3.56,11.71-.8l25.82,32.03Z"/>
        <path class="cls-204" d="M1042.32,701.27l-31.13,9.62c-1.18.37-1.38,2.31-1.43,2.94-1.34-1.71-5.47-3.24-5.02-7.19.23-1.98,3.8-1.99,5.24-2.45l25.57-8.15c3.19-1.02,5.34,3.42,6.76,5.22Z"/>
        <g>
          <path class="cls-190" d="M1145.02,730.51l-28.01,42.91c-.67,2.6,3.78,5.47,5.57,6.71.53,1.77,1.12,3.76.47,5.51-3.48,9.48-19.41,30.78-27.85,36.84-4.92,3.53-7.83,5.11-13.96,3.12-5.63-2.55-11.14-5.75-16.15-10.61-15.9-11.69-29.39-25.54-39.44-41.88-2.41.74-3.16.35-1.49-1.66-2.08-8.06-4.31-16.01-8.7-15.14l-1.93-2.39c-1.63-9.34-3.22-18.76-4.78-28.26l2.92-2,1.62-.97c11.21,13.97,22.57,27.84,34.09,41.62l.17-2.24c-.34-1.9-.11-3.64,1.83-4-6.82-7.81-13.88-15.22-21.18-22.21-1.87-2.19-1.58-3.37,1.31-2.41.32-2.62,2.63-3.15,6.94-1.58,5.29-4.75,11.21-3.68,16.82,0,9.37,5.84,18.44,12.15,27.2,18.93l1.07-1.45-17.68-22.19.4-1.53c-4.77-7.75-3.14-15.76,3.29-22.22l-19.36-13.74c-6.2-7.79-2.11-17.64,6.72-15.32,27.67,7.25,56.48,23.6,76.95,43.38,6.07,3.51,10.45,7.77,13.13,12.78Z"/>
          <path class="cls-145" d="M1002.61,702.42c5.98-1.57,8.44-.98,7.38,1.77-2.57,3.02-2.51,5.08.17,6.19l-.39,3.45,13.76,17.48c3.8,2.61,24.85,24.66,25,27.42.07,1.25-.16,2.34-.96,3.34l4.71,3.23c-2.75,2.3-6.57,1.38-9.02-1.72l-31.57-39.92-8.64-11.09c-8.41,2.29-8.98-14.77-.44-10.15Z"/>
          <path class="cls-65" d="M1029.53,733.44c-1.48.6-.93,1.4-.59,1.89.4.56,1.85,2.09,2.75,2.09,3.7,0,4.84,3.03,7.05,5.34l16.56,17.43c-3.21.59-5.72.19-7.73,1.87l-24.04-30.76,6,2.13Z"/>
          <path class="cls-91" d="M1105.55,764.53l-14.09-8.14c6.28-.25,11.21,3.31,14.09,8.14Z"/>
          <g>
            <path class="cls-124" d="M1079.99,739.4l-.78-14.21c-.14-2.62.48-5.72,1.95-6.94,1.96-1.63,4.67-1.62,7.7-1.67-3.71-6.2-9.23-8.93-16.12-12.97,3.37-2.81,4.78.37,7.39,2.03,8.03,5.07,15,12.88,11.7,22.91-1.69,5.14-7.83,9.09-11.85,10.86Z"/>
            <path class="cls-195" d="M1082.07,735.33c-.45-5.27-1.06-9.39.12-14.19.52-2.1,5.48-3.56,6.7-2.1,4.18,5.01.96,13.34-6.83,16.29Z"/>
          </g>
        </g>
      </g>
      <g>
        <path class="cls-73" d="M1232.59,646.36l.09,12.13c.07,3.94,3.56,5.53,6.99,5.1l1.56,5.38c-2.18.59-2.14,2.17-2.72,3.92,1.23,8.92-11.19,19.69-19.18,20.41-1.76.16-2.72,0-3.84-1.9-15.24,3.27-29.03-10.42-29.7-25.48l.52-1.4c5.86-1.36,9.71-4.48,4.91-9.08-.75-.72,3.02-7.82,5.48-4.58,2.57-1.2,4.67-3.6,6.32-7.21-1.62-2.38-.54-2.99,1.61-.91,1.3-6.92,12.47-1.8,14.98,3.65,2.55.64,5.35.33,8.39-.93.32-2.63,1.85-2.33,4.59.92Z"/>
        <path class="cls-199" d="M1217.04,696.83l-1.54-5.42c10.1-2.17,19.83-8.92,23.02-18.5,1.96,2.91.27,6.47-.52,9.87-2.35,10.06-8.51,16.31-18.29,19.89l-2.66-5.84Z"/>
        <path class="cls-27" d="M1203.02,643.64c-3.02,5.27-3.26,11.4,1.39,16.84-5.4-.42-4.3-6.54-6.52-9.13-4.97,1.24-4.58,7.47-2.52,9.66,1.8,1.91,3.98,2.53,3.84,6.65l7.9-3.26c.49,2.8-1.06,4.6-2.68,5.36-4.84,2.27-7.73-5.19-11.22-5.9-2.22-.45-4.91,1.19-7.41,2.06-1.53-.62-2.89-1.43-4.07-2.66.76-2.02,3.07-3.14,6.94-3.36-6.5-3.87-6.53-7.57-1.5-12.58.44-.44-7.12-.2-5.8,4.93-3.05,2.91-5.66.25-4.08-3.43l6.1-6.86c1.72-1.94,4.82-2.94,6.77-1.8,6,3.5,2.47,9.86,6.34,9.85s2.75-4.66,6.52-6.37Z"/>
        <path class="cls-197" d="M1232.59,646.36c-2.87.07-9.32-.7-10.73,3.49s-1.01,9-5.09,11.36c-3.85,2.22-9.8,4.47-12.92-.89,5.9,1.58,11.05,1.31,13.63-2.76,2.78-4.37,2.99-9.27-.43-13.33-3.13-3.71-7.87-4-12.45-1.51-1-.94-1.87-2.7-1.13-3.38,4.22-3.86,12.56-.22,17.4,7.2l7.26-2.14c-.27-1.86-1.35-6.34-3.09-7.32-4.05-.55-6.2-1.11-8.63-3.04,2.41-.19,7.61-1.52,9.67.4l6.48,11.91Z"/>
        <path class="cls-41" d="M1208.56,654.95c-2.5,1.08-3.83-1.61-3.43-3.51.25-1.18.85-3.36,3.08-2.93,1.88.36,2.31,5.59.35,6.43Z"/>
      </g>
    </g>
  </g>
  <g>
    <g>
      <path class="cls-54" d="M382.61,830.69l2.76,1.4-3.14,77.7c-1.01,2.32-3.24,3.77-6.7,4.35l-.27,3.71,99.49.12,1.68,2.82.08,1.41c-62.13,1.22-128.91,1.22-191.55,0-14.67,1.18-31.44,1.02-46.46,0-.07-.58.5-1.36,1.5-1.36l68.17-.29c-3.1-1.41-3.93-4.43-3.4-8.39-.69-1.5-4.25-2.02-6.8-1.87l-3.1-79.58,1.3-2.81c28.24,0,56.49,0,84.75-.01l1.69,2.81Z"/>
      <path class="cls-42" d="M345.32,737.86c1.24,8.27,2.36,16.59,3.38,24.96l1.88-.02c2.17-1.44,4.48-.3,6.92,3.44-.63-8.93,3.08-26.09,14.27-17.45.16,8.34-.97,16.91-3.4,25.73,1.32,2.12,8.72,5.21,11.46,6.04.03-22.66,15.65-15.21,10.99,3.46,4.16,1.05,6.99,2.83,8.49,5.35-.01,2.11-1.91,3.49-5.69,4.13l-.41,19.46c-2.37,4.25-7.79,5.59-9.69.85l-1.3,2.81-84.17-.13c-.8,3.61-.94,7.68-.41,12.22l-2.76,2.01c-.56,0-1.47-.02-1.48-1.34l-.03-15.2-6.44-1.13.37-24.23,37.01-.1.33-14.49c3-.51,4.36,1.33,4.08,5.52-.92,5.24-.27,7.37,1.95,6.41-.72-8.55,4.77-52.34,11.37-55.06,5.09-2.1,7.47,4.58,3.28,6.78Z"/>
      <polygon class="cls-164" points="383.51 813.79 382.61 830.69 294.86 830.7 294.36 813.65 383.51 813.79"/>
    </g>
    <g>
      <g>
        <path class="cls-150" d="M474.84,470.35c1.41-.94,2.2-.42,2.37,1.54l-.35,40.55c-3.46.62-7.23-.42-11.31-3.15-60.46-11.82-47.07,80.68,7.8,53.04l3.45,1.2.72,41.46.41,314.19c.23,1.88-.42,3.01-1.42,3.01-1.25-.34-1.26-.81-.08-1.41-1.1.02-2.81-.3-2.82-.98-.99-81.32-.16-164.73,1.03-246.77-1.4-6.21-1.31-11.7.27-16.47-.96-16.41-1.66-32.38-2.11-47.92.27,5.73-.63,11.07-2.71,16.04-1.77,1.69-3.74,1.23-5.89-1.39l-4.29-.83c-12.71-14.41-37.53-31.78-56.77-22.52l-3.42.11c-4.57-2.82-8.55-6.5-11.44-11.11,3.92-4.1,7.21-6.86,9.54-11.68-5.62-7.67-9.29-15.86-11.42-25.37l-15.5-2.74-.04-22.18,15.47-2.04c1.84-9.93,6.02-18.41,11.36-26.86-4.25-4.18-7.38-7.6-10.33-12.41l16.36-16.51,13.11,11c7.41-5.74,15.34-8.71,24.04-11.04l2.14-16.85,23.22-.1c.94,5.83.32,11.23,2.48,16.29.89,1.65,4.95,1.73,6.15,1.91Z"/>
        <path class="cls-181" d="M476.86,512.44l-.06,51.09c-10.43,6.63-22.88,9.76-34.72,4.27-10.41-4.83-18.74-15.36-19.3-28.28-.6-13.69,6.13-25.53,17.53-31.27,11.96-6.02,25.83-4.31,36.56,4.19Z"/>
      </g>
      <g>
        <path class="cls-140" d="M299.91,551.52l-24.73.47-2.03-10.59c-.61-3.18-6.17-3.97-9.13-5.84-2.37,1.4-6.86,4.83-9.6,3.71l-12.38-19.56,7.96-6.7c1.9-1.6,1.39-8.24-.14-10.16l-8.92-6.79,12.13-21.21,9.39,3.55c1.71.65,11.62-3.25,10.77-15.8l24.87-.19c-1.1,7.43.86,10.97,5.95,13.6,4.29,2.21,8.24.62,13.65-3.54l12.63,20.47c-1.4,3.28-4.69,3.89-7.16,6.14-2.59,2.37-2.76,9.88-.17,11.85l8.34,6.34-11.41,21.16c-3.97-.54-6.59-2.38-10.19-4.37l-8.7,6.05c-1.39,2.53-.08,7.04-1.11,11.4Z"/>
        <ellipse class="cls-181" cx="286.1" cy="506.63" rx="20.69" ry="20.68"/>
      </g>
      <g>
        <path class="cls-24" d="M396.2,619.89c0,3.1-2.41,1.17-4.18-.68-1.18,2.21-2.04,1.69-1.54-.81-37.74-23.78-50.92,16.06-54.61,46.7,8.56,15.29,13.47,31.95,14.75,49.98,13.7-8.63,34.56-.28,37.38,15.67,2.39-1.07,5.15,1.23,4.84,3.53-.99,7.41-11.29,2.44-9.18-3.24l-13.59-8.69c-7.29-3.24-19.21-1.06-18.52,8.27l-1.92,3.1c3.55,2.45,3.02,4.14-1.28,4.1-1.4,2.9-2.41,2.91-3.03.05l-.39-5.73c-2.86,2.39-3.92,6-5.08,9.81-4.67,15.34-6.07,30.35-6.5,47.1l-8.22.08c.76-6.08,1.51-10.65-.49-14.91.57-24.95-.72-49.99,1-74.93l1.52-22.06c-4.22-.32-4.08-5.17.22-5.55,1.11-2.93,1.59-6.05-1.13-8.86-4.9-5.07-10.86-8.74-17.13-9.84l-9.62-.81-.57-1.43c10.57-3.61,21.27.03,29.85,9.12,5.01-26.77,11.59-52.59,39.22-55.98,12.12-.13,22.02,6.65,28.2,16.02Z"/>
        <path class="cls-122" d="M344.23,724.87c-11.09,15.7-10.85,32.83-13.82,51.1-1.81-33.56-1.46-66.89,1.59-102.2,8.68,15.78,10.16,33.46,12.22,51.1Z"/>
        <path class="cls-162" d="M383.65,731.03c-14.13-4.25-24.44-7.45-34.02,2.68,0-1.9-1.86-5.74-.58-7.92,5.84-9.32,17.89-10.06,26.03-3.63,3.74,2.95,6.62,5.02,8.57,8.86Z"/>
      </g>
      <g>
        <path class="cls-180" d="M330.11,582.79l-1.6,28.44-61.83-.1.34-28.62c15.77-.67,30.57-1.65,45.72-.37,5.43.46,10.03,1.72,17.37.66Z"/>
        <path class="cls-181" d="M327.22,609.76l-28.78-.75-29.27-.48c.06-7.97.4-14.91-.31-23.72l58.3-.41.06,25.36Z"/>
      </g>
      <g>
        <g>
          <path class="cls-13" d="M464.2,623.29c6.36-.73,10.47,13.3,3.09,14.48-10.3-4.84-20.91-8.42-31.83-10.75l29.45,12.15c6.82,3.83,11.76,8.82,10.02,17.39-.59,2.88-1.48,2.79-4.36,1.87,0,0-8.14-4.67-24.41-14.02l27.56,20.06c3.21,5.94-1.63,35.79-7.73,36.42-.71.07-1.45-.19-2.2-.56l-12.72-16.79c-3.08-4.49-6.92-6.83-11.51-7.04-1.7,1.7-3.52,2.87-5.45,3.51l-1.34,1.31c-6-10.02-11.39-20.36-16.17-31.01-5.45-7.1-6.07-10.88-1.85-11.35-1.65.23-3.13-.08-4.44-.92l-9.58-11.02c-.88,1.8-4.79-5.28-4.87-5.72-.08-.42.63-.98,1.57-1.58-.42-6.32-.45-13.77,2.3-19.69,5.55-11.95,42.1-5.67,64.48,23.25Z"/>
          <path class="cls-105" d="M456.16,669.24c-1.56,3.34-7.33.25-8.47-1.84-1.6-2.92-3.69-5.78-1.71-9.47,4.55.62,11.72,5.58,10.18,11.31Z"/>
        </g>
        <g>
          <path class="cls-109" d="M396.2,619.89c.29-.18.91-.15,1.23-.15.26,3.88,4.7,5.82,6.49,8.65,3.31,5.23,6.16,6.77,11.52,8.76,9.62,3.58,19.02,7.44,27.69,13.28l-29.95-9.92c6.28,12.23,13.17,23.82,18.21,36.82l2.71,2.7c3.96-1.09,5.84,3.65,2.57,6.05,4.22,2.77,15.39,27.79,12.13,30.21-1.94,1.43-4.02,1.04-5.72-.58l-19.32-42.01c-.02,3.62-.68,27.06-7.38,18.96l-1.24-30.23c-1.64-16.27-4.79-15.26-9.45,3.03-.67,1.32-1.84,2.46-3.36,2.33-7.69-.68.47-19.31,2.33-23.15,1.3-4.94.51-9.67-4.78-12.44-1.13-.59-10.64,19.64-11.64,22.62-7.1,3.15-6.68-3.45-4.96-9.32l11.01-19.95c-2.79-1.8-4.83-3.24-2.28-6.34,1.26.71,2.83,1.5,4.18.68Z"/>
          <path class="cls-168" d="M390.48,618.4c.47.09,1.32.24,1.54.81.99,2.62,3.85,3.65,5.94,5.69l-10.45,18.47c-1.95,3.45-3.78,7.23-1.93,11.62,3.19-9.57,7.29-18.26,13.91-27.12,3.26,3.38,9.91,8.48,8.9,13.83-1.6,8.44-8.2,15.35-6.02,24.65l7.99-21.86c10.92,8.9,7.27,30.91,8.57,48.48,2.34-7.49.54-18.87,3.54-28.84l23.57,51.26c.99-.6,1.09-1.43.81-2.18l-10.17-27.14,25.07,20.69c-3.07,7.11-7.72,13.18-13.73,17.18-10-10.24-21.36-14.92-34.57-16.97l-5.29-29.33c-8.62,1.66-6.62,13.47-3,25.2-5.67-1.25-9.77-3.86-13.54-7.13-1.88-14.53,5.63-34.07,1.85-38.24-3.11-3.44-7.89,2.05-8.7,5.62-2.23,9.76-.98,18.21-1.05,29.48-8.91-6.6-15.15-13.97-22.44-21.75,1.67-13.34,14.34-30.2,11.11-32.37-5.17-3.47-12.41,10.16-15.17,22.74-5.58-11.33-5.94-23.48-3.62-34.71,2.81-13.6,21.67-11.14,36.9-8.08Z"/>
          <path class="cls-210" d="M382.72,639.29c2.59.74,2.12,6.47.04,8.54-1.54,1.54-3.72,1.97-6.94,1.33-.16-4.95,4.25-10.63,6.9-9.87Z"/>
        </g>
      </g>
      <g>
        <path class="cls-154" d="M348.34,737.81c-4.5,8.31,2.11,16.95,2.22,24.99l.36,25.89-2.48.46-1.87-30.22c-.46-7.45-.8-14.31-1.26-21.08l3.03-.05Z"/>
        <g>
          <path class="cls-212" d="M399.3,789.35c-2.84-.59-6.75-.94-9.74-2.78-5.18-3.19,3.31-15.79-3.86-17.44-4.7,2.9-2.87,9.01-1.69,14.71-6.93.09-13.36-3.84-18.99-8.37l4.6-22.12c.49-2.33-.21-4.43-2.17-4.46-6.89-.11-7.64,12.33-6.94,23.3-5.35-2.29-6.69-6.43-9.94-9.4-1.01-.07-1.81-.2-1.89-.51-1.26-4.9-3.2-18.92-2.16-23.51l1.83-.97c.53-.98,1.28-2.94,1.28-4.1,2.55-13.83,25.88-11,34.02-2.68l6.49,5.48c.4-3.08-1.52-3.86-2.15-5.77.77-4.69-.83-13.14,4.58-16.2,11.54-6.52,26.29.12,32.86,10.71,3.44,5.54,6.1,10.25,6.27,16.9-9.51-.14-18.65-8.6-28.55-2.61,1.53,9.24,18.3,5.3,30.01,10.78,2.41,3.85.23,12.74-2.68,16.19-9.11-3.44-19.65-7.01-22.54-3.6-3.13,3.69,9.35,6.68,21.41,8.55-2.7,8.33-7.6,14.48-12.46,21.55l-17.6-3.66Z"/>
          <path class="cls-82" d="M412.4,785.68l-10.06-23.14-4.02,14.91c-2.88-6.25,1.88-11.53,1.96-17.11.09-6.63-5.02-12.06-7.55-17.16l-8.49,17.21c-.42-.6-.9-.8-.95-.81l8.15-23.35c6.07,13.28,13.11,10.68,21.75,16.97l-13.38-2.85,9.5,22.2c1.65,3.86,4.52,6.86,3.08,13.13Z"/>
          <path class="cls-1" d="M374.92,773.97c-3.67.6-3.62-9.94.36-10.36,3.4-.35,4.37,9.58-.36,10.36Z"/>
          <path class="cls-45" d="M418.55,730.17c.97,3.83-2.62,3.96-4.69,3.43-1.41-.36-4.64-1.12-3.44-4.38.72-1.95,7.36-2.1,8.13.95Z"/>
        </g>
      </g>
      <g>
        <path class="cls-187" d="M285.97,657.91c-1.76,3.84-4.43,7.62-8.03,11.36,1.67,1.61.63,4.7-.68,3.5-1.85-1.69,6.02-10.36,8.1-12.49,6.85-7.03,14.01-9.77,23.74-7.31,4.73-3.38,13.66,3.62,17.67,7.62,3.66,3.66,7.88,8.76.59,11.08l-2.97,1.63c-23.54-8.14-21.76,3.33.98,1.17l1.77,2.75,2.7,1.77-1.28,18.53-2.94,1.77-8.99,13.51c-6.17-7.78-12.15-15.64-20.93-20.71-2.67-1.54-9.14-1.28-8.85,2.14.93,11.05,23.04,13.23,23.15,22.53.03,2.6-6.62,5.65-9.03,4.98l-12.48-11.1c-1.03-.92-2.07-.87-2.73-.84-.71.03-1.88,1.8-.95,2.81l10.76,11.71c-11.69,4.74-25.92,10.03-25.94,3.5-.01-6.73-3.92-12.48-10.42-13.42,2.72,6.95,6.79,10.95,7.25,18.18l-33.35,3.98c-3.88-10.9-7.2-21.01-7.75-32.47,12.13-5.09,24.25.17,23.19-7.71-.96-7.14-13.91-6.81-23.7,1.57-1.26.98-2.94-1-1.88-2.53,7.66-11.06,24.78-6.24,28.86-14.69-9.96-2.14-18.14,2.3-27.69,7.24-.16-10.76,1.42-20.42,5.27-29.63,18.77-2.94,33.83,12.81,39.31,6.3,1.36-1.61,1.43-6.57-.63-8.59-9.54-9.41-22.84-9.26-35.19-3.68,2.52-5.47,5.52-10.86,10.54-13.77s11.65.31,15.4,4.29c2.46,2.61,9.18,3.19,9.08-.75-.17-6.83-8.86-7.79-15.49-9.69,5.06-4.1,12.88-6.15,19.39-5.36,7.32.89,12.02,6.32,12.51,13.03l1.65,17.81Z"/>
        <g>
          <path class="cls-47" d="M309.11,652.97c-14.15-1.6-21.57,5.26-30.94,17.34,6.4,4.46,11.3,8.2,14.83,13.86-6.76-2.81-10.16-7.28-15.52-11.34-3.44,2.83-6.68,6.58-7.81,11.06,4.1,6.9,8.84,13.35,7.86,21.87-3.64-6.95-5.03-14.3-10.25-20.32-11.49,15.62-21.09,30.83-29.82,46.8-.08-6.17,3.08-11.04,6.28-15.92l16.31-24.89c-5.33-1.13-9.5-1.35-13.26-3.83l14.13.8c3.93-1.59,6.32-7.38,9.02-10.68-7.11-4.31-13.63-5.66-20.42-8.36,7.88-1.36,14.39,2.81,21.35,5.47,6.61-4.59,10.11-11.64,15.1-16.91,3.5-3.7,8.3-5.59,12.95-7.18l10.18,2.24Z"/>
          <path class="cls-60" d="M327.37,671.67c-.58,1.54-.11,3.92-.22,5.55-10.35.41-22.29-.01-22.53-4.78-.3-6.04,11.45-7.01,22.75-.77Z"/>
          <path class="cls-203" d="M274.83,719.24c-4.33-2.6-6.61-5.78-5.95-9.56.22-1.26,3.01-3.64,4.43-2.2,2.75,2.8,2.18,8.01,1.51,11.76Z"/>
          <path class="cls-49" d="M247.13,671.28c-.63,4.89-9.56,4.85-9.6,1.1.93-2.48,7.27-3.33,9.6-1.1Z"/>
          <rect class="cls-61" x="309.69" y="693.1" width="4.68" height="5.93" transform="translate(-296.79 236.5) rotate(-28.81)"/>
        </g>
      </g>
    </g>
  </g>
  <g>
    <path class="cls-181" d="M1699.73,753.33c5.16,9.22,11.46,5.92,19.84,5.98l.07,16.17c-2.63.64-4.17.49-5.74.34-.16.43-.35.79-.65.91-2.37,1.02-49.28,1.86-51.53.6-1.08-.6-1.21-23.46-.58-24.52.97-1.64,32.72-1.08,37.66-.89.33.01.64.63.94,1.42Z"/>
    <path class="cls-144" d="M1699.73,753.33h-37.88s.61,22.94.61,22.94l51.43-.46c-.11,2.08-1.46,3.04-4.08,3.02l-49.98-.47.19-13.63c.07-4.88-1.3-9,1.07-14.25h62.61s.03,25.49.03,25.49c0,1.13-1.48,2.53-2.75,2.66l-.12-27.03c-7.43,2.39-14.22,1.73-21.13,1.73Z"/>
    <path class="cls-101" d="M1633.65,746.29l-.02-4.22,2.79-1.75,46.28.35-.27-17.36-46.71.45-2.08-2.79v-4.22c2.24,1.5,5.15,1.5,8.39,1.46l45.79-.57-.03,27.86-54.13.8Z"/>
    <path class="cls-201" d="M1633.64,742.07v-21.11s51.56-.56,51.56-.56l.36,23.08-46.38.05c-2.28,0-4.17-.57-5.55-1.46Z"/>
  </g>
</svg>